SplineFontDB: 3.2
FontName: UndertaleFontrus,eng
FullName: Undertale Font (rus,eng) Regular
FamilyName: Undertale Font (rus,eng)
Weight: Book
Copyright: Copyright MrDiman 2018
Version: 1.0
ItalicAngle: 0
UnderlinePosition: 153
UnderlineWidth: 102
Ascent: 1536
Descent: 512
InvalidEm: 0
sfntRevision: 0x00010000
LayerCount: 2
Layer: 0 1 "+BBcEMAQ0BD0EOAQ5 +BD8EOwQwBD0A" 1
Layer: 1 1 "+BB8ENQRABDUENAQ9BDgEOQAA +BD8EOwQwBD0A" 0
XUID: [1021 977 -1985021925 19080]
StyleMap: 0x0040
FSType: 4
OS2Version: 2
OS2_WeightWidthSlopeOnly: 0
OS2_UseTypoMetrics: 0
CreationTime: 1706939772
ModificationTime: 1753254414
PfmFamily: 81
TTFWeight: 400
TTFWidth: 5
LineGap: 0
VLineGap: 0
Panose: 0 0 4 0 0 0 0 0 0 0
OS2TypoAscent: 1536
OS2TypoAOffset: 0
OS2TypoDescent: -512
OS2TypoDOffset: 0
OS2TypoLinegap: 0
OS2WinAscent: 1877
OS2WinAOffset: 0
OS2WinDescent: 512
OS2WinDOffset: 0
HheadAscent: 1877
HheadAOffset: 0
HheadDescent: -512
HheadDOffset: 0
OS2SubXSize: 1024
OS2SubYSize: 1024
OS2SubXOff: 0
OS2SubYOff: -256
OS2SupXSize: 1024
OS2SupYSize: 1024
OS2SupXOff: 0
OS2SupYOff: 1024
OS2StrikeYSize: 102
OS2StrikeYPos: 409
OS2CapHeight: 1536
OS2XHeight: 1194
OS2Vendor: 'FSTR'
OS2CodePages: 200101ff.cdff0000
OS2UnicodeRanges: 00000201.00000000.00000000.00000000
DEI: 91125
ShortTable: maxp 16
  1
  0
  168
  60
  15
  0
  0
  2
  0
  0
  0
  0
  0
  0
  0
  0
EndShort

StartChar: .notdef
Encoding: 65536 -1 0
Width: 1352
GlyphClass: 1
Flags: W
LayerCount: 2
Fore
SplineSet
1112 50 m 1,0,-1
 590 748 l 1,1,-1
 69 50 l 1,2,-1
 1112 50 l 1,0,-1
50 69 m 1,3,-1
 571 768 l 1,4,-1
 50 1466 l 1,5,-1
 50 69 l 1,3,-1
1131 69 m 1,6,-1
 1131 1466 l 1,7,-1
 610 768 l 1,8,-1
 1131 69 l 1,6,-1
590 787 m 1,9,-1
 1112 1486 l 1,10,-1
 69 1486 l 1,11,-1
 590 787 l 1,9,-1
0 0 m 1,12,-1
 0 1536 l 1,13,-1
 1181 1536 l 1,14,-1
 1181 0 l 1,15,-1
 0 0 l 1,12,-1
EndSplineSet
EndChar

StartChar: exclam
Encoding: 33 33 2
Width: 1365
GlyphClass: 1
Flags: W
LayerCount: 2
Fore
SplineSet
170 0 m 1,0,-1
 170 341 l 1,1,-1
 512 341 l 1,2,-1
 512 0 l 1,3,-1
 170 0 l 1,0,-1
170 512 m 1,4,-1
 170 1024 l 1,5,-1
 0 1024 l 1,6,-1
 0 1536 l 1,7,-1
 170 1536 l 1,8,-1
 170 1706 l 1,9,-1
 512 1706 l 1,10,-1
 512 1536 l 1,11,-1
 682 1536 l 1,12,-1
 682 1024 l 1,13,-1
 512 1024 l 1,14,-1
 512 512 l 1,15,-1
 170 512 l 1,4,-1
EndSplineSet
EndChar

StartChar: quotedbl
Encoding: 34 34 3
Width: 1365
GlyphClass: 1
Flags: W
LayerCount: 2
Fore
SplineSet
0 853 m 1,0,-1
 0 1024 l 1,1,-1
 170 1024 l 1,2,-1
 170 853 l 1,3,-1
 0 853 l 1,0,-1
512 853 m 1,4,-1
 512 1024 l 1,5,-1
 682 1024 l 1,6,-1
 682 853 l 1,7,-1
 512 853 l 1,4,-1
170 1024 m 1,8,-1
 170 1194 l 1,9,-1
 0 1194 l 1,10,-1
 0 1536 l 1,11,-1
 341 1536 l 1,12,-1
 341 1024 l 1,13,-1
 170 1024 l 1,8,-1
682 1024 m 1,14,-1
 682 1194 l 1,15,-1
 512 1194 l 1,16,-1
 512 1536 l 1,17,-1
 853 1536 l 1,18,-1
 853 1024 l 1,19,-1
 682 1024 l 1,14,-1
EndSplineSet
EndChar

StartChar: numbersign
Encoding: 35 35 4
Width: 1365
GlyphClass: 1
Flags: W
LayerCount: 2
Fore
SplineSet
682 512 m 1,0,-1
 682 1024 l 1,1,-1
 512 1024 l 1,2,-1
 512 512 l 1,3,-1
 682 512 l 1,0,-1
170 0 m 1,4,-1
 170 341 l 1,5,-1
 0 341 l 1,6,-1
 0 512 l 1,7,-1
 170 512 l 1,8,-1
 170 1024 l 1,9,-1
 0 1024 l 1,10,-1
 0 1194 l 1,11,-1
 170 1194 l 1,12,-1
 170 1536 l 1,13,-1
 512 1536 l 1,14,-1
 512 1194 l 1,15,-1
 682 1194 l 1,16,-1
 682 1536 l 1,17,-1
 1024 1536 l 1,18,-1
 1024 1194 l 1,19,-1
 1194 1194 l 1,20,-1
 1194 1024 l 1,21,-1
 1024 1024 l 1,22,-1
 1024 512 l 1,23,-1
 1194 512 l 1,24,-1
 1194 341 l 1,25,-1
 1024 341 l 1,26,-1
 1024 0 l 1,27,-1
 682 0 l 1,28,-1
 682 341 l 1,29,-1
 512 341 l 1,30,-1
 512 0 l 1,31,-1
 170 0 l 1,4,-1
EndSplineSet
EndChar

StartChar: dollar
Encoding: 36 36 5
Width: 1365
GlyphClass: 1
Flags: W
LayerCount: 2
Fore
SplineSet
341 -341 m 1,0,-1
 341 0 l 1,1,-1
 170 0 l 1,2,-1
 170 170 l 1,3,-1
 0 170 l 1,4,-1
 0 512 l 1,5,-1
 341 512 l 1,6,-1
 341 170 l 1,7,-1
 682 170 l 1,8,-1
 682 682 l 1,9,-1
 170 682 l 1,10,-1
 170 853 l 1,11,-1
 0 853 l 1,12,-1
 0 1365 l 1,13,-1
 170 1365 l 1,14,-1
 170 1536 l 1,15,-1
 341 1536 l 1,16,-1
 341 1877 l 1,17,-1
 682 1877 l 1,18,-1
 682 1536 l 1,19,-1
 853 1536 l 1,20,-1
 853 1365 l 1,21,-1
 1024 1365 l 1,22,-1
 1024 1024 l 1,23,-1
 682 1024 l 1,24,-1
 682 1365 l 1,25,-1
 341 1365 l 1,26,-1
 341 853 l 1,27,-1
 853 853 l 1,28,-1
 853 682 l 1,29,-1
 1024 682 l 1,30,-1
 1024 170 l 1,31,-1
 853 170 l 1,32,-1
 853 0 l 1,33,-1
 682 0 l 1,34,-1
 682 -341 l 1,35,-1
 341 -341 l 1,0,-1
EndSplineSet
EndChar

StartChar: percent
Encoding: 37 37 6
Width: 1365
GlyphClass: 1
Flags: W
LayerCount: 2
Fore
SplineSet
682 -170 m 1,0,-1
 682 0 l 1,1,-1
 1024 0 l 1,2,-1
 1024 -170 l 1,3,-1
 682 -170 l 1,0,-1
0 0 m 1,4,-1
 0 170 l 1,5,-1
 170 170 l 1,6,-1
 170 0 l 1,7,-1
 0 0 l 1,4,-1
170 170 m 1,8,-1
 170 341 l 1,9,-1
 341 341 l 1,10,-1
 341 170 l 1,11,-1
 170 170 l 1,8,-1
512 0 m 1,12,-1
 512 341 l 1,13,-1
 682 341 l 1,14,-1
 682 0 l 1,15,-1
 512 0 l 1,12,-1
1024 0 m 1,16,-1
 1024 341 l 1,17,-1
 1194 341 l 1,18,-1
 1194 0 l 1,19,-1
 1024 0 l 1,16,-1
341 341 m 1,20,-1
 341 512 l 1,21,-1
 512 512 l 1,22,-1
 512 341 l 1,23,-1
 341 341 l 1,20,-1
682 341 m 1,24,-1
 682 512 l 1,25,-1
 1024 512 l 1,26,-1
 1024 341 l 1,27,-1
 682 341 l 1,24,-1
512 512 m 1,28,-1
 512 682 l 1,29,-1
 682 682 l 1,30,-1
 682 512 l 1,31,-1
 512 512 l 1,28,-1
170 682 m 1,32,-1
 170 853 l 1,33,-1
 512 853 l 1,34,-1
 512 682 l 1,35,-1
 170 682 l 1,32,-1
682 682 m 1,36,-1
 682 853 l 1,37,-1
 853 853 l 1,38,-1
 853 682 l 1,39,-1
 682 682 l 1,36,-1
853 853 m 1,40,-1
 853 1024 l 1,41,-1
 1024 1024 l 1,42,-1
 1024 853 l 1,43,-1
 853 853 l 1,40,-1
0 853 m 1,44,-1
 0 1194 l 1,45,-1
 170 1194 l 1,46,-1
 170 853 l 1,47,-1
 0 853 l 1,44,-1
512 853 m 1,48,-1
 512 1194 l 1,49,-1
 682 1194 l 1,50,-1
 682 853 l 1,51,-1
 512 853 l 1,48,-1
1024 1024 m 1,52,-1
 1024 1194 l 1,53,-1
 1194 1194 l 1,54,-1
 1194 1024 l 1,55,-1
 1024 1024 l 1,52,-1
170 1194 m 1,56,-1
 170 1365 l 1,57,-1
 512 1365 l 1,58,-1
 512 1194 l 1,59,-1
 170 1194 l 1,56,-1
EndSplineSet
EndChar

StartChar: quotesingle
Encoding: 39 39 8
Width: 1365
GlyphClass: 1
Flags: W
LayerCount: 2
Fore
SplineSet
0 853 m 1,0,-1
 0 1024 l 1,1,-1
 170 1024 l 1,2,-1
 170 853 l 1,3,-1
 0 853 l 1,0,-1
170 1024 m 1,4,-1
 170 1194 l 1,5,-1
 0 1194 l 1,6,-1
 0 1536 l 1,7,-1
 341 1536 l 1,8,-1
 341 1024 l 1,9,-1
 170 1024 l 1,4,-1
EndSplineSet
EndChar

StartChar: parenleft
Encoding: 40 40 9
Width: 1365
GlyphClass: 1
Flags: W
LayerCount: 2
Fore
SplineSet
341 0 m 1,0,-1
 341 170 l 1,1,-1
 170 170 l 1,2,-1
 170 341 l 1,3,-1
 0 341 l 1,4,-1
 0 1194 l 1,5,-1
 170 1194 l 1,6,-1
 170 1365 l 1,7,-1
 341 1365 l 1,8,-1
 341 1536 l 1,9,-1
 682 1536 l 1,10,-1
 682 1365 l 1,11,-1
 512 1365 l 1,12,-1
 512 1194 l 1,13,-1
 341 1194 l 1,14,-1
 341 341 l 1,15,-1
 512 341 l 1,16,-1
 512 170 l 1,17,-1
 682 170 l 1,18,-1
 682 0 l 1,19,-1
 341 0 l 1,0,-1
EndSplineSet
EndChar

StartChar: parenright
Encoding: 41 41 10
Width: 1365
GlyphClass: 1
Flags: W
LayerCount: 2
Fore
SplineSet
0 0 m 1,0,-1
 0 170 l 1,1,-1
 170 170 l 1,2,-1
 170 341 l 1,3,-1
 341 341 l 1,4,-1
 341 1194 l 1,5,-1
 170 1194 l 1,6,-1
 170 1365 l 1,7,-1
 0 1365 l 1,8,-1
 0 1536 l 1,9,-1
 341 1536 l 1,10,-1
 341 1365 l 1,11,-1
 512 1365 l 1,12,-1
 512 1194 l 1,13,-1
 682 1194 l 1,14,-1
 682 341 l 1,15,-1
 512 341 l 1,16,-1
 512 170 l 1,17,-1
 341 170 l 1,18,-1
 341 0 l 1,19,-1
 0 0 l 1,0,-1
EndSplineSet
EndChar

StartChar: asterisk
Encoding: 42 42 11
Width: 1365
GlyphClass: 1
Flags: W
LayerCount: 2
Fore
SplineSet
170 341 m 1,0,-1
 170 512 l 1,1,-1
 341 512 l 1,2,-1
 341 682 l 1,3,-1
 0 682 l 1,4,-1
 0 853 l 1,5,-1
 341 853 l 1,6,-1
 341 1024 l 1,7,-1
 170 1024 l 1,8,-1
 170 1194 l 1,9,-1
 512 1194 l 1,10,-1
 512 1024 l 1,11,-1
 853 1024 l 1,12,-1
 853 1194 l 1,13,-1
 1194 1194 l 1,14,-1
 1194 1024 l 1,15,-1
 1024 1024 l 1,16,-1
 1024 853 l 1,17,-1
 1365 853 l 1,18,-1
 1365 682 l 1,19,-1
 1024 682 l 1,20,-1
 1024 512 l 1,21,-1
 1194 512 l 1,22,-1
 1194 341 l 1,23,-1
 853 341 l 1,24,-1
 853 512 l 1,25,-1
 512 512 l 1,26,-1
 512 341 l 1,27,-1
 170 341 l 1,0,-1
EndSplineSet
EndChar

StartChar: plus
Encoding: 43 43 12
Width: 1365
GlyphClass: 1
Flags: W
LayerCount: 2
Fore
SplineSet
341 341 m 1,0,-1
 341 682 l 1,1,-1
 0 682 l 1,2,-1
 0 853 l 1,3,-1
 341 853 l 1,4,-1
 341 1194 l 1,5,-1
 682 1194 l 1,6,-1
 682 853 l 1,7,-1
 1024 853 l 1,8,-1
 1024 682 l 1,9,-1
 682 682 l 1,10,-1
 682 341 l 1,11,-1
 341 341 l 1,0,-1
EndSplineSet
EndChar

StartChar: comma
Encoding: 44 44 13
Width: 1365
GlyphClass: 1
Flags: W
LayerCount: 2
Fore
SplineSet
0 -341 m 1,0,-1
 0 -170 l 1,1,-1
 170 -170 l 1,2,-1
 170 -341 l 1,3,-1
 0 -341 l 1,0,-1
170 -170 m 1,4,-1
 170 0 l 1,5,-1
 0 0 l 1,6,-1
 0 341 l 1,7,-1
 341 341 l 1,8,-1
 341 -170 l 1,9,-1
 170 -170 l 1,4,-1
EndSplineSet
EndChar

StartChar: hyphen
Encoding: 45 45 14
Width: 1365
GlyphClass: 1
Flags: W
LayerCount: 2
Fore
SplineSet
0 682 m 1,0,-1
 0 853 l 1,1,-1
 1024 853 l 1,2,-1
 1024 682 l 1,3,-1
 0 682 l 1,0,-1
EndSplineSet
EndChar

StartChar: period
Encoding: 46 46 15
Width: 1365
GlyphClass: 1
Flags: W
LayerCount: 2
Fore
SplineSet
0 0 m 1,0,-1
 0 341 l 1,1,-1
 341 341 l 1,2,-1
 341 0 l 1,3,-1
 0 0 l 1,0,-1
EndSplineSet
EndChar

StartChar: slash
Encoding: 47 47 16
Width: 1365
GlyphClass: 1
Flags: W
LayerCount: 2
Fore
SplineSet
0 0 m 1,0,-1
 0 341 l 1,1,-1
 170 341 l 1,2,-1
 170 682 l 1,3,-1
 341 682 l 1,4,-1
 341 1024 l 1,5,-1
 512 1024 l 1,6,-1
 512 1365 l 1,7,-1
 682 1365 l 1,8,-1
 682 1706 l 1,9,-1
 1024 1706 l 1,10,-1
 1024 1365 l 1,11,-1
 853 1365 l 1,12,-1
 853 1024 l 1,13,-1
 682 1024 l 1,14,-1
 682 682 l 1,15,-1
 512 682 l 1,16,-1
 512 341 l 1,17,-1
 341 341 l 1,18,-1
 341 0 l 1,19,-1
 0 0 l 1,0,-1
EndSplineSet
EndChar

StartChar: zero
Encoding: 48 48 17
Width: 1365
GlyphClass: 1
Flags: W
LayerCount: 2
Fore
SplineSet
682 170 m 1,0,-1
 682 682 l 1,1,-1
 512 682 l 1,2,-1
 512 341 l 1,3,-1
 341 341 l 1,4,-1
 341 170 l 1,5,-1
 682 170 l 1,0,-1
512 853 m 1,6,-1
 512 1194 l 1,7,-1
 682 1194 l 1,8,-1
 682 1365 l 1,9,-1
 341 1365 l 1,10,-1
 341 853 l 1,11,-1
 512 853 l 1,6,-1
170 0 m 1,12,-1
 170 170 l 1,13,-1
 0 170 l 1,14,-1
 0 1365 l 1,15,-1
 170 1365 l 1,16,-1
 170 1536 l 1,17,-1
 853 1536 l 1,18,-1
 853 1365 l 1,19,-1
 1024 1365 l 1,20,-1
 1024 170 l 1,21,-1
 853 170 l 1,22,-1
 853 0 l 1,23,-1
 170 0 l 1,12,-1
EndSplineSet
EndChar

StartChar: one
Encoding: 49 49 18
Width: 1365
GlyphClass: 1
Flags: W
LayerCount: 2
Fore
SplineSet
0 0 m 1,0,-1
 0 170 l 1,1,-1
 341 170 l 1,2,-1
 341 1194 l 1,3,-1
 0 1194 l 1,4,-1
 0 1365 l 1,5,-1
 341 1365 l 1,6,-1
 341 1536 l 1,7,-1
 682 1536 l 1,8,-1
 682 170 l 1,9,-1
 1024 170 l 1,10,-1
 1024 0 l 1,11,-1
 0 0 l 1,0,-1
EndSplineSet
EndChar

StartChar: two
Encoding: 50 50 19
Width: 1365
GlyphClass: 1
Flags: W
LayerCount: 2
Fore
SplineSet
0 0 m 1,0,-1
 0 341 l 1,1,-1
 170 341 l 1,2,-1
 170 512 l 1,3,-1
 341 512 l 1,4,-1
 341 682 l 1,5,-1
 512 682 l 1,6,-1
 512 853 l 1,7,-1
 682 853 l 1,8,-1
 682 1365 l 1,9,-1
 341 1365 l 1,10,-1
 341 1024 l 1,11,-1
 0 1024 l 1,12,-1
 0 1365 l 1,13,-1
 170 1365 l 1,14,-1
 170 1536 l 1,15,-1
 853 1536 l 1,16,-1
 853 1365 l 1,17,-1
 1024 1365 l 1,18,-1
 1024 853 l 1,19,-1
 853 853 l 1,20,-1
 853 682 l 1,21,-1
 682 682 l 1,22,-1
 682 512 l 1,23,-1
 512 512 l 1,24,-1
 512 341 l 1,25,-1
 341 341 l 1,26,-1
 341 170 l 1,27,-1
 1024 170 l 1,28,-1
 1024 0 l 1,29,-1
 0 0 l 1,0,-1
EndSplineSet
EndChar

StartChar: three
Encoding: 51 51 20
Width: 1365
GlyphClass: 1
Flags: W
LayerCount: 2
Fore
SplineSet
170 0 m 1,0,-1
 170 170 l 1,1,-1
 0 170 l 1,2,-1
 0 512 l 1,3,-1
 341 512 l 1,4,-1
 341 170 l 1,5,-1
 682 170 l 1,6,-1
 682 682 l 1,7,-1
 341 682 l 1,8,-1
 341 853 l 1,9,-1
 682 853 l 1,10,-1
 682 1365 l 1,11,-1
 341 1365 l 1,12,-1
 341 1024 l 1,13,-1
 0 1024 l 1,14,-1
 0 1365 l 1,15,-1
 170 1365 l 1,16,-1
 170 1536 l 1,17,-1
 853 1536 l 1,18,-1
 853 1365 l 1,19,-1
 1024 1365 l 1,20,-1
 1024 853 l 1,21,-1
 853 853 l 1,22,-1
 853 682 l 1,23,-1
 1024 682 l 1,24,-1
 1024 170 l 1,25,-1
 853 170 l 1,26,-1
 853 0 l 1,27,-1
 170 0 l 1,0,-1
EndSplineSet
EndChar

StartChar: four
Encoding: 52 52 21
Width: 1365
GlyphClass: 1
Flags: W
LayerCount: 2
Fore
SplineSet
682 512 m 1,0,-1
 682 1024 l 1,1,-1
 512 1024 l 1,2,-1
 512 853 l 1,3,-1
 341 853 l 1,4,-1
 341 512 l 1,5,-1
 682 512 l 1,0,-1
682 0 m 1,6,-1
 682 341 l 1,7,-1
 0 341 l 1,8,-1
 0 853 l 1,9,-1
 170 853 l 1,10,-1
 170 1024 l 1,11,-1
 341 1024 l 1,12,-1
 341 1194 l 1,13,-1
 512 1194 l 1,14,-1
 512 1365 l 1,15,-1
 682 1365 l 1,16,-1
 682 1536 l 1,17,-1
 1024 1536 l 1,18,-1
 1024 0 l 1,19,-1
 682 0 l 1,6,-1
EndSplineSet
EndChar

StartChar: five
Encoding: 53 53 22
Width: 1365
GlyphClass: 1
Flags: W
LayerCount: 2
Fore
SplineSet
170 0 m 1,0,-1
 170 170 l 1,1,-1
 0 170 l 1,2,-1
 0 512 l 1,3,-1
 341 512 l 1,4,-1
 341 170 l 1,5,-1
 682 170 l 1,6,-1
 682 682 l 1,7,-1
 0 682 l 1,8,-1
 0 1536 l 1,9,-1
 1024 1536 l 1,10,-1
 1024 1365 l 1,11,-1
 341 1365 l 1,12,-1
 341 853 l 1,13,-1
 853 853 l 1,14,-1
 853 682 l 1,15,-1
 1024 682 l 1,16,-1
 1024 170 l 1,17,-1
 853 170 l 1,18,-1
 853 0 l 1,19,-1
 170 0 l 1,0,-1
EndSplineSet
EndChar

StartChar: six
Encoding: 54 54 23
Width: 1365
GlyphClass: 1
Flags: W
LayerCount: 2
Fore
SplineSet
682 170 m 1,0,-1
 682 682 l 1,1,-1
 341 682 l 1,2,-1
 341 170 l 1,3,-1
 682 170 l 1,0,-1
170 0 m 1,4,-1
 170 170 l 1,5,-1
 0 170 l 1,6,-1
 0 1194 l 1,7,-1
 170 1194 l 1,8,-1
 170 1365 l 1,9,-1
 341 1365 l 1,10,-1
 341 1536 l 1,11,-1
 1024 1536 l 1,12,-1
 1024 1365 l 1,13,-1
 512 1365 l 1,14,-1
 512 1194 l 1,15,-1
 341 1194 l 1,16,-1
 341 853 l 1,17,-1
 853 853 l 1,18,-1
 853 682 l 1,19,-1
 1024 682 l 1,20,-1
 1024 170 l 1,21,-1
 853 170 l 1,22,-1
 853 0 l 1,23,-1
 170 0 l 1,4,-1
EndSplineSet
EndChar

StartChar: seven
Encoding: 55 55 24
Width: 1365
GlyphClass: 1
Flags: W
LayerCount: 2
Fore
SplineSet
341 0 m 1,0,-1
 341 682 l 1,1,-1
 512 682 l 1,2,-1
 512 1024 l 1,3,-1
 682 1024 l 1,4,-1
 682 1365 l 1,5,-1
 0 1365 l 1,6,-1
 0 1536 l 1,7,-1
 1024 1536 l 1,8,-1
 1024 1024 l 1,9,-1
 853 1024 l 1,10,-1
 853 682 l 1,11,-1
 682 682 l 1,12,-1
 682 0 l 1,13,-1
 341 0 l 1,0,-1
EndSplineSet
EndChar

StartChar: eight
Encoding: 56 56 25
Width: 1365
GlyphClass: 1
Flags: W
LayerCount: 2
Fore
SplineSet
682 170 m 1,0,-1
 682 682 l 1,1,-1
 341 682 l 1,2,-1
 341 170 l 1,3,-1
 682 170 l 1,0,-1
682 853 m 1,4,-1
 682 1365 l 1,5,-1
 341 1365 l 1,6,-1
 341 853 l 1,7,-1
 682 853 l 1,4,-1
170 0 m 1,8,-1
 170 170 l 1,9,-1
 0 170 l 1,10,-1
 0 682 l 1,11,-1
 170 682 l 1,12,-1
 170 853 l 1,13,-1
 0 853 l 1,14,-1
 0 1365 l 1,15,-1
 170 1365 l 1,16,-1
 170 1536 l 1,17,-1
 853 1536 l 1,18,-1
 853 1365 l 1,19,-1
 1024 1365 l 1,20,-1
 1024 853 l 1,21,-1
 853 853 l 1,22,-1
 853 682 l 1,23,-1
 1024 682 l 1,24,-1
 1024 170 l 1,25,-1
 853 170 l 1,26,-1
 853 0 l 1,27,-1
 170 0 l 1,8,-1
EndSplineSet
EndChar

StartChar: nine
Encoding: 57 57 26
Width: 1365
GlyphClass: 1
Flags: W
LayerCount: 2
Fore
SplineSet
682 853 m 1,0,-1
 682 1365 l 1,1,-1
 341 1365 l 1,2,-1
 341 853 l 1,3,-1
 682 853 l 1,0,-1
170 0 m 1,4,-1
 170 170 l 1,5,-1
 512 170 l 1,6,-1
 512 341 l 1,7,-1
 682 341 l 1,8,-1
 682 682 l 1,9,-1
 170 682 l 1,10,-1
 170 853 l 1,11,-1
 0 853 l 1,12,-1
 0 1365 l 1,13,-1
 170 1365 l 1,14,-1
 170 1536 l 1,15,-1
 853 1536 l 1,16,-1
 853 1365 l 1,17,-1
 1024 1365 l 1,18,-1
 1024 341 l 1,19,-1
 853 341 l 1,20,-1
 853 170 l 1,21,-1
 682 170 l 1,22,-1
 682 0 l 1,23,-1
 170 0 l 1,4,-1
EndSplineSet
EndChar

StartChar: colon
Encoding: 58 58 27
Width: 1365
GlyphClass: 1
Flags: W
LayerCount: 2
Fore
SplineSet
0 0 m 1,0,-1
 0 341 l 1,1,-1
 341 341 l 1,2,-1
 341 0 l 1,3,-1
 0 0 l 1,0,-1
0 853 m 1,4,-1
 0 1194 l 1,5,-1
 341 1194 l 1,6,-1
 341 853 l 1,7,-1
 0 853 l 1,4,-1
EndSplineSet
EndChar

StartChar: semicolon
Encoding: 59 59 28
Width: 1365
GlyphClass: 1
Flags: W
LayerCount: 2
Fore
SplineSet
0 -341 m 1,0,-1
 0 -170 l 1,1,-1
 170 -170 l 1,2,-1
 170 -341 l 1,3,-1
 0 -341 l 1,0,-1
170 -170 m 1,4,-1
 170 0 l 1,5,-1
 0 0 l 1,6,-1
 0 341 l 1,7,-1
 341 341 l 1,8,-1
 341 -170 l 1,9,-1
 170 -170 l 1,4,-1
0 853 m 1,10,-1
 0 1194 l 1,11,-1
 341 1194 l 1,12,-1
 341 853 l 1,13,-1
 0 853 l 1,10,-1
EndSplineSet
EndChar

StartChar: less
Encoding: 60 60 29
Width: 1365
GlyphClass: 1
Flags: W
LayerCount: 2
Fore
SplineSet
682 0 m 1,0,-1
 682 170 l 1,1,-1
 512 170 l 1,2,-1
 512 341 l 1,3,-1
 341 341 l 1,4,-1
 341 512 l 1,5,-1
 170 512 l 1,6,-1
 170 682 l 1,7,-1
 0 682 l 1,8,-1
 0 853 l 1,9,-1
 170 853 l 1,10,-1
 170 1024 l 1,11,-1
 341 1024 l 1,12,-1
 341 1194 l 1,13,-1
 512 1194 l 1,14,-1
 512 1365 l 1,15,-1
 682 1365 l 1,16,-1
 682 1536 l 1,17,-1
 853 1536 l 1,18,-1
 853 1194 l 1,19,-1
 682 1194 l 1,20,-1
 682 1024 l 1,21,-1
 512 1024 l 1,22,-1
 512 853 l 1,23,-1
 341 853 l 1,24,-1
 341 682 l 1,25,-1
 512 682 l 1,26,-1
 512 512 l 1,27,-1
 682 512 l 1,28,-1
 682 341 l 1,29,-1
 853 341 l 1,30,-1
 853 0 l 1,31,-1
 682 0 l 1,0,-1
EndSplineSet
EndChar

StartChar: equal
Encoding: 61 61 30
Width: 1365
GlyphClass: 1
Flags: W
LayerCount: 2
Fore
SplineSet
0 512 m 1,0,-1
 0 682 l 1,1,-1
 1024 682 l 1,2,-1
 1024 512 l 1,3,-1
 0 512 l 1,0,-1
0 853 m 1,4,-1
 0 1024 l 1,5,-1
 1024 1024 l 1,6,-1
 1024 853 l 1,7,-1
 0 853 l 1,4,-1
EndSplineSet
EndChar

StartChar: greater
Encoding: 62 62 31
Width: 1365
GlyphClass: 1
Flags: W
LayerCount: 2
Fore
SplineSet
0 0 m 1,0,-1
 0 341 l 1,1,-1
 170 341 l 1,2,-1
 170 512 l 1,3,-1
 341 512 l 1,4,-1
 341 682 l 1,5,-1
 512 682 l 1,6,-1
 512 853 l 1,7,-1
 341 853 l 1,8,-1
 341 1024 l 1,9,-1
 170 1024 l 1,10,-1
 170 1194 l 1,11,-1
 0 1194 l 1,12,-1
 0 1536 l 1,13,-1
 170 1536 l 1,14,-1
 170 1365 l 1,15,-1
 341 1365 l 1,16,-1
 341 1194 l 1,17,-1
 512 1194 l 1,18,-1
 512 1024 l 1,19,-1
 682 1024 l 1,20,-1
 682 853 l 1,21,-1
 853 853 l 1,22,-1
 853 682 l 1,23,-1
 682 682 l 1,24,-1
 682 512 l 1,25,-1
 512 512 l 1,26,-1
 512 341 l 1,27,-1
 341 341 l 1,28,-1
 341 170 l 1,29,-1
 170 170 l 1,30,-1
 170 0 l 1,31,-1
 0 0 l 1,0,-1
EndSplineSet
EndChar

StartChar: question
Encoding: 63 63 32
Width: 1365
GlyphClass: 1
Flags: W
LayerCount: 2
Fore
SplineSet
341 0 m 1,0,-1
 341 341 l 1,1,-1
 682 341 l 1,2,-1
 682 0 l 1,3,-1
 341 0 l 1,0,-1
341 512 m 1,4,-1
 341 853 l 1,5,-1
 512 853 l 1,6,-1
 512 1024 l 1,7,-1
 682 1024 l 1,8,-1
 682 1365 l 1,9,-1
 341 1365 l 1,10,-1
 341 1024 l 1,11,-1
 0 1024 l 1,12,-1
 0 1365 l 1,13,-1
 170 1365 l 1,14,-1
 170 1536 l 1,15,-1
 853 1536 l 1,16,-1
 853 1365 l 1,17,-1
 1024 1365 l 1,18,-1
 1024 1024 l 1,19,-1
 853 1024 l 1,20,-1
 853 853 l 1,21,-1
 682 853 l 1,22,-1
 682 512 l 1,23,-1
 341 512 l 1,4,-1
EndSplineSet
EndChar

StartChar: at
Encoding: 64 64 33
Width: 1365
GlyphClass: 1
Flags: W
LayerCount: 2
Fore
SplineSet
170 0 m 1,0,-1
 170 170 l 1,1,-1
 0 170 l 1,2,-1
 0 1365 l 1,3,-1
 170 1365 l 1,4,-1
 170 1536 l 1,5,-1
 853 1536 l 1,6,-1
 853 1365 l 1,7,-1
 1024 1365 l 1,8,-1
 1024 512 l 1,9,-1
 512 512 l 1,10,-1
 512 1024 l 1,11,-1
 682 1024 l 1,12,-1
 682 1365 l 1,13,-1
 341 1365 l 1,14,-1
 341 170 l 1,15,-1
 1024 170 l 1,16,-1
 1024 0 l 1,17,-1
 170 0 l 1,0,-1
EndSplineSet
EndChar

StartChar: A
Encoding: 65 65 34
Width: 1365
GlyphClass: 1
Flags: W
LayerCount: 2
Fore
SplineSet
682 682 m 1,0,-1
 682 1365 l 1,1,-1
 341 1365 l 1,2,-1
 341 682 l 1,3,-1
 682 682 l 1,0,-1
0 0 m 1,4,-1
 0 1365 l 1,5,-1
 170 1365 l 1,6,-1
 170 1536 l 1,7,-1
 853 1536 l 1,8,-1
 853 1365 l 1,9,-1
 1024 1365 l 1,10,-1
 1024 0 l 1,11,-1
 682 0 l 1,12,-1
 682 512 l 1,13,-1
 341 512 l 1,14,-1
 341 0 l 1,15,-1
 0 0 l 1,4,-1
EndSplineSet
EndChar

StartChar: B
Encoding: 66 66 35
Width: 1365
GlyphClass: 1
Flags: W
LayerCount: 2
Fore
SplineSet
682 170 m 1,0,-1
 682 682 l 1,1,-1
 341 682 l 1,2,-1
 341 170 l 1,3,-1
 682 170 l 1,0,-1
682 853 m 1,4,-1
 682 1365 l 1,5,-1
 341 1365 l 1,6,-1
 341 853 l 1,7,-1
 682 853 l 1,4,-1
0 0 m 1,8,-1
 0 1536 l 1,9,-1
 853 1536 l 1,10,-1
 853 1365 l 1,11,-1
 1024 1365 l 1,12,-1
 1024 853 l 1,13,-1
 853 853 l 1,14,-1
 853 682 l 1,15,-1
 1024 682 l 1,16,-1
 1024 170 l 1,17,-1
 853 170 l 1,18,-1
 853 0 l 1,19,-1
 0 0 l 1,8,-1
EndSplineSet
EndChar

StartChar: C
Encoding: 67 67 36
Width: 1365
GlyphClass: 1
Flags: W
LayerCount: 2
Fore
SplineSet
170 0 m 1,0,-1
 170 170 l 1,1,-1
 0 170 l 1,2,-1
 0 1365 l 1,3,-1
 170 1365 l 1,4,-1
 170 1536 l 1,5,-1
 853 1536 l 1,6,-1
 853 1365 l 1,7,-1
 1024 1365 l 1,8,-1
 1024 1024 l 1,9,-1
 682 1024 l 1,10,-1
 682 1365 l 1,11,-1
 341 1365 l 1,12,-1
 341 170 l 1,13,-1
 682 170 l 1,14,-1
 682 512 l 1,15,-1
 1024 512 l 1,16,-1
 1024 170 l 1,17,-1
 853 170 l 1,18,-1
 853 0 l 1,19,-1
 170 0 l 1,0,-1
EndSplineSet
EndChar

StartChar: D
Encoding: 68 68 37
Width: 1365
GlyphClass: 1
Flags: W
LayerCount: 2
Fore
SplineSet
682 170 m 1,0,-1
 682 1365 l 1,1,-1
 341 1365 l 1,2,-1
 341 170 l 1,3,-1
 682 170 l 1,0,-1
0 0 m 1,4,-1
 0 1536 l 1,5,-1
 853 1536 l 1,6,-1
 853 1365 l 1,7,-1
 1024 1365 l 1,8,-1
 1024 170 l 1,9,-1
 853 170 l 1,10,-1
 853 0 l 1,11,-1
 0 0 l 1,4,-1
EndSplineSet
EndChar

StartChar: E
Encoding: 69 69 38
Width: 1365
GlyphClass: 1
Flags: W
LayerCount: 2
Fore
SplineSet
0 0 m 1,0,-1
 0 1536 l 1,1,-1
 1024 1536 l 1,2,-1
 1024 1365 l 1,3,-1
 341 1365 l 1,4,-1
 341 853 l 1,5,-1
 853 853 l 1,6,-1
 853 682 l 1,7,-1
 341 682 l 1,8,-1
 341 170 l 1,9,-1
 1024 170 l 1,10,-1
 1024 0 l 1,11,-1
 0 0 l 1,0,-1
EndSplineSet
EndChar

StartChar: F
Encoding: 70 70 39
Width: 1365
GlyphClass: 1
Flags: W
LayerCount: 2
Fore
SplineSet
0 0 m 1,0,-1
 0 1536 l 1,1,-1
 1024 1536 l 1,2,-1
 1024 1365 l 1,3,-1
 341 1365 l 1,4,-1
 341 853 l 1,5,-1
 853 853 l 1,6,-1
 853 682 l 1,7,-1
 341 682 l 1,8,-1
 341 0 l 1,9,-1
 0 0 l 1,0,-1
EndSplineSet
EndChar

StartChar: G
Encoding: 71 71 40
Width: 1365
GlyphClass: 1
Flags: W
LayerCount: 2
Fore
SplineSet
170 0 m 1,0,-1
 170 170 l 1,1,-1
 0 170 l 1,2,-1
 0 1365 l 1,3,-1
 170 1365 l 1,4,-1
 170 1536 l 1,5,-1
 853 1536 l 1,6,-1
 853 1365 l 1,7,-1
 1024 1365 l 1,8,-1
 1024 1024 l 1,9,-1
 682 1024 l 1,10,-1
 682 1365 l 1,11,-1
 341 1365 l 1,12,-1
 341 170 l 1,13,-1
 682 170 l 1,14,-1
 682 682 l 1,15,-1
 512 682 l 1,16,-1
 512 853 l 1,17,-1
 1024 853 l 1,18,-1
 1024 170 l 1,19,-1
 853 170 l 1,20,-1
 853 0 l 1,21,-1
 170 0 l 1,0,-1
EndSplineSet
EndChar

StartChar: H
Encoding: 72 72 41
Width: 1365
GlyphClass: 1
Flags: W
LayerCount: 2
Fore
SplineSet
0 0 m 1,0,-1
 0 1536 l 1,1,-1
 341 1536 l 1,2,-1
 341 853 l 1,3,-1
 682 853 l 1,4,-1
 682 1536 l 1,5,-1
 1024 1536 l 1,6,-1
 1024 0 l 1,7,-1
 682 0 l 1,8,-1
 682 682 l 1,9,-1
 341 682 l 1,10,-1
 341 0 l 1,11,-1
 0 0 l 1,0,-1
EndSplineSet
EndChar

StartChar: I
Encoding: 73 73 42
Width: 1365
GlyphClass: 1
Flags: W
LayerCount: 2
Fore
SplineSet
0 0 m 1,0,-1
 0 170 l 1,1,-1
 341 170 l 1,2,-1
 341 1365 l 1,3,-1
 0 1365 l 1,4,-1
 0 1536 l 1,5,-1
 1024 1536 l 1,6,-1
 1024 1365 l 1,7,-1
 682 1365 l 1,8,-1
 682 170 l 1,9,-1
 1024 170 l 1,10,-1
 1024 0 l 1,11,-1
 0 0 l 1,0,-1
EndSplineSet
EndChar

StartChar: J
Encoding: 74 74 43
Width: 1365
GlyphClass: 1
Flags: W
LayerCount: 2
Fore
SplineSet
170 0 m 1,0,-1
 170 170 l 1,1,-1
 0 170 l 1,2,-1
 0 512 l 1,3,-1
 341 512 l 1,4,-1
 341 170 l 1,5,-1
 682 170 l 1,6,-1
 682 1365 l 1,7,-1
 341 1365 l 1,8,-1
 341 1536 l 1,9,-1
 1024 1536 l 1,10,-1
 1024 170 l 1,11,-1
 853 170 l 1,12,-1
 853 0 l 1,13,-1
 170 0 l 1,0,-1
EndSplineSet
EndChar

StartChar: K
Encoding: 75 75 44
Width: 1365
GlyphClass: 1
Flags: W
LayerCount: 2
Fore
SplineSet
0 0 m 1,0,-1
 0 1536 l 1,1,-1
 341 1536 l 1,2,-1
 341 853 l 1,3,-1
 512 853 l 1,4,-1
 512 1194 l 1,5,-1
 682 1194 l 1,6,-1
 682 1536 l 1,7,-1
 1024 1536 l 1,8,-1
 1024 1194 l 1,9,-1
 853 1194 l 1,10,-1
 853 853 l 1,11,-1
 682 853 l 1,12,-1
 682 682 l 1,13,-1
 853 682 l 1,14,-1
 853 341 l 1,15,-1
 1024 341 l 1,16,-1
 1024 0 l 1,17,-1
 682 0 l 1,18,-1
 682 341 l 1,19,-1
 512 341 l 1,20,-1
 512 682 l 1,21,-1
 341 682 l 1,22,-1
 341 0 l 1,23,-1
 0 0 l 1,0,-1
EndSplineSet
EndChar

StartChar: L
Encoding: 76 76 45
Width: 1365
GlyphClass: 1
Flags: W
LayerCount: 2
Fore
SplineSet
0 0 m 1,0,-1
 0 1536 l 1,1,-1
 341 1536 l 1,2,-1
 341 170 l 1,3,-1
 1024 170 l 1,4,-1
 1024 0 l 1,5,-1
 0 0 l 1,0,-1
EndSplineSet
EndChar

StartChar: M
Encoding: 77 77 46
Width: 1365
GlyphClass: 1
Flags: W
LayerCount: 2
Fore
SplineSet
0 0 m 1,0,-1
 0 1536 l 1,1,-1
 170 1536 l 1,2,-1
 170 1365 l 1,3,-1
 341 1365 l 1,4,-1
 341 1194 l 1,5,-1
 512 1194 l 1,6,-1
 512 1024 l 1,7,-1
 682 1024 l 1,8,-1
 682 1194 l 1,9,-1
 853 1194 l 1,10,-1
 853 1365 l 1,11,-1
 1024 1365 l 1,12,-1
 1024 1536 l 1,13,-1
 1194 1536 l 1,14,-1
 1194 0 l 1,15,-1
 853 0 l 1,16,-1
 853 853 l 1,17,-1
 682 853 l 1,18,-1
 682 682 l 1,19,-1
 512 682 l 1,20,-1
 512 853 l 1,21,-1
 341 853 l 1,22,-1
 341 0 l 1,23,-1
 0 0 l 1,0,-1
EndSplineSet
EndChar

StartChar: N
Encoding: 78 78 47
Width: 1365
GlyphClass: 1
Flags: W
LayerCount: 2
Fore
SplineSet
0 0 m 1,0,-1
 0 1536 l 1,1,-1
 341 1536 l 1,2,-1
 341 1194 l 1,3,-1
 512 1194 l 1,4,-1
 512 853 l 1,5,-1
 341 853 l 1,6,-1
 341 0 l 1,7,-1
 0 0 l 1,0,-1
682 0 m 1,8,-1
 682 512 l 1,9,-1
 512 512 l 1,10,-1
 512 853 l 1,11,-1
 682 853 l 1,12,-1
 682 1536 l 1,13,-1
 1024 1536 l 1,14,-1
 1024 0 l 1,15,-1
 682 0 l 1,8,-1
EndSplineSet
EndChar

StartChar: O
Encoding: 79 79 48
Width: 1365
GlyphClass: 1
Flags: W
LayerCount: 2
Fore
SplineSet
682 170 m 1,0,-1
 682 1365 l 1,1,-1
 341 1365 l 1,2,-1
 341 170 l 1,3,-1
 682 170 l 1,0,-1
170 0 m 1,4,-1
 170 170 l 1,5,-1
 0 170 l 1,6,-1
 0 1365 l 1,7,-1
 170 1365 l 1,8,-1
 170 1536 l 1,9,-1
 853 1536 l 1,10,-1
 853 1365 l 1,11,-1
 1024 1365 l 1,12,-1
 1024 170 l 1,13,-1
 853 170 l 1,14,-1
 853 0 l 1,15,-1
 170 0 l 1,4,-1
EndSplineSet
EndChar

StartChar: P
Encoding: 80 80 49
Width: 1365
GlyphClass: 1
Flags: W
LayerCount: 2
Fore
SplineSet
682 853 m 1,0,-1
 682 1365 l 1,1,-1
 341 1365 l 1,2,-1
 341 853 l 1,3,-1
 682 853 l 1,0,-1
0 0 m 1,4,-1
 0 1536 l 1,5,-1
 853 1536 l 1,6,-1
 853 1365 l 1,7,-1
 1024 1365 l 1,8,-1
 1024 853 l 1,9,-1
 853 853 l 1,10,-1
 853 682 l 1,11,-1
 341 682 l 1,12,-1
 341 0 l 1,13,-1
 0 0 l 1,4,-1
EndSplineSet
EndChar

StartChar: Q
Encoding: 81 81 50
Width: 1365
GlyphClass: 1
Flags: W
LayerCount: 2
Fore
SplineSet
682 170 m 1,0,-1
 682 1365 l 1,1,-1
 341 1365 l 1,2,-1
 341 170 l 1,3,-1
 682 170 l 1,0,-1
512 -341 m 1,4,-1
 512 -170 l 1,5,-1
 341 -170 l 1,6,-1
 341 0 l 1,7,-1
 170 0 l 1,8,-1
 170 170 l 1,9,-1
 0 170 l 1,10,-1
 0 1365 l 1,11,-1
 170 1365 l 1,12,-1
 170 1536 l 1,13,-1
 853 1536 l 1,14,-1
 853 1365 l 1,15,-1
 1024 1365 l 1,16,-1
 1024 170 l 1,17,-1
 853 170 l 1,18,-1
 853 0 l 1,19,-1
 682 0 l 1,20,-1
 682 -170 l 1,21,-1
 1024 -170 l 1,22,-1
 1024 -341 l 1,23,-1
 512 -341 l 1,4,-1
EndSplineSet
EndChar

StartChar: R
Encoding: 82 82 51
Width: 1365
GlyphClass: 1
Flags: W
LayerCount: 2
Fore
SplineSet
682 853 m 1,0,-1
 682 1365 l 1,1,-1
 341 1365 l 1,2,-1
 341 853 l 1,3,-1
 682 853 l 1,0,-1
0 0 m 1,4,-1
 0 1536 l 1,5,-1
 853 1536 l 1,6,-1
 853 1365 l 1,7,-1
 1024 1365 l 1,8,-1
 1024 853 l 1,9,-1
 853 853 l 1,10,-1
 853 682 l 1,11,-1
 1024 682 l 1,12,-1
 1024 0 l 1,13,-1
 682 0 l 1,14,-1
 682 682 l 1,15,-1
 341 682 l 1,16,-1
 341 0 l 1,17,-1
 0 0 l 1,4,-1
EndSplineSet
EndChar

StartChar: S
Encoding: 83 83 52
Width: 1365
GlyphClass: 1
Flags: W
LayerCount: 2
Fore
SplineSet
170 0 m 1,0,-1
 170 170 l 1,1,-1
 0 170 l 1,2,-1
 0 512 l 1,3,-1
 341 512 l 1,4,-1
 341 170 l 1,5,-1
 682 170 l 1,6,-1
 682 682 l 1,7,-1
 170 682 l 1,8,-1
 170 853 l 1,9,-1
 0 853 l 1,10,-1
 0 1365 l 1,11,-1
 170 1365 l 1,12,-1
 170 1536 l 1,13,-1
 853 1536 l 1,14,-1
 853 1365 l 1,15,-1
 1024 1365 l 1,16,-1
 1024 1024 l 1,17,-1
 682 1024 l 1,18,-1
 682 1365 l 1,19,-1
 341 1365 l 1,20,-1
 341 853 l 1,21,-1
 853 853 l 1,22,-1
 853 682 l 1,23,-1
 1024 682 l 1,24,-1
 1024 170 l 1,25,-1
 853 170 l 1,26,-1
 853 0 l 1,27,-1
 170 0 l 1,0,-1
EndSplineSet
EndChar

StartChar: T
Encoding: 84 84 53
Width: 1365
GlyphClass: 1
Flags: W
LayerCount: 2
Fore
SplineSet
341 0 m 1,0,-1
 341 1365 l 1,1,-1
 0 1365 l 1,2,-1
 0 1536 l 1,3,-1
 1024 1536 l 1,4,-1
 1024 1365 l 1,5,-1
 682 1365 l 1,6,-1
 682 0 l 1,7,-1
 341 0 l 1,0,-1
EndSplineSet
EndChar

StartChar: U
Encoding: 85 85 54
Width: 1365
GlyphClass: 1
Flags: W
LayerCount: 2
Fore
SplineSet
170 0 m 1,0,-1
 170 170 l 1,1,-1
 0 170 l 1,2,-1
 0 1536 l 1,3,-1
 341 1536 l 1,4,-1
 341 170 l 1,5,-1
 682 170 l 1,6,-1
 682 1536 l 1,7,-1
 1024 1536 l 1,8,-1
 1024 170 l 1,9,-1
 853 170 l 1,10,-1
 853 0 l 1,11,-1
 170 0 l 1,0,-1
EndSplineSet
EndChar

StartChar: V
Encoding: 86 86 55
Width: 1365
GlyphClass: 1
Flags: W
LayerCount: 2
Fore
SplineSet
341 0 m 1,0,-1
 341 341 l 1,1,-1
 170 341 l 1,2,-1
 170 682 l 1,3,-1
 0 682 l 1,4,-1
 0 1536 l 1,5,-1
 341 1536 l 1,6,-1
 341 682 l 1,7,-1
 682 682 l 1,8,-1
 682 1536 l 1,9,-1
 1024 1536 l 1,10,-1
 1024 682 l 1,11,-1
 853 682 l 1,12,-1
 853 341 l 1,13,-1
 682 341 l 1,14,-1
 682 0 l 1,15,-1
 341 0 l 1,0,-1
EndSplineSet
EndChar

StartChar: W
Encoding: 87 87 56
Width: 1365
GlyphClass: 1
Flags: W
LayerCount: 2
Fore
SplineSet
512 512 m 1,0,-1
 512 1194 l 1,1,-1
 682 1194 l 1,2,-1
 682 512 l 1,3,-1
 512 512 l 1,0,-1
170 0 m 1,4,-1
 170 512 l 1,5,-1
 0 512 l 1,6,-1
 0 1536 l 1,7,-1
 341 1536 l 1,8,-1
 341 512 l 1,9,-1
 512 512 l 1,10,-1
 512 0 l 1,11,-1
 170 0 l 1,4,-1
682 0 m 1,12,-1
 682 512 l 1,13,-1
 853 512 l 1,14,-1
 853 1536 l 1,15,-1
 1194 1536 l 1,16,-1
 1194 512 l 1,17,-1
 1024 512 l 1,18,-1
 1024 0 l 1,19,-1
 682 0 l 1,12,-1
EndSplineSet
EndChar

StartChar: X
Encoding: 88 88 57
Width: 1365
GlyphClass: 1
Flags: W
LayerCount: 2
Fore
SplineSet
0 0 m 1,0,-1
 0 341 l 1,1,-1
 170 341 l 1,2,-1
 170 682 l 1,3,-1
 341 682 l 1,4,-1
 341 853 l 1,5,-1
 170 853 l 1,6,-1
 170 1194 l 1,7,-1
 0 1194 l 1,8,-1
 0 1536 l 1,9,-1
 341 1536 l 1,10,-1
 341 1194 l 1,11,-1
 682 1194 l 1,12,-1
 682 1536 l 1,13,-1
 1024 1536 l 1,14,-1
 1024 1194 l 1,15,-1
 853 1194 l 1,16,-1
 853 853 l 1,17,-1
 682 853 l 1,18,-1
 682 682 l 1,19,-1
 853 682 l 1,20,-1
 853 341 l 1,21,-1
 1024 341 l 1,22,-1
 1024 0 l 1,23,-1
 682 0 l 1,24,-1
 682 341 l 1,25,-1
 341 341 l 1,26,-1
 341 0 l 1,27,-1
 0 0 l 1,0,-1
EndSplineSet
EndChar

StartChar: Y
Encoding: 89 89 58
Width: 1365
GlyphClass: 1
Flags: W
LayerCount: 2
Fore
SplineSet
341 0 m 1,0,-1
 341 682 l 1,1,-1
 170 682 l 1,2,-1
 170 853 l 1,3,-1
 0 853 l 1,4,-1
 0 1536 l 1,5,-1
 341 1536 l 1,6,-1
 341 853 l 1,7,-1
 682 853 l 1,8,-1
 682 1536 l 1,9,-1
 1024 1536 l 1,10,-1
 1024 853 l 1,11,-1
 853 853 l 1,12,-1
 853 682 l 1,13,-1
 682 682 l 1,14,-1
 682 0 l 1,15,-1
 341 0 l 1,0,-1
EndSplineSet
EndChar

StartChar: Z
Encoding: 90 90 59
Width: 1365
GlyphClass: 1
Flags: W
LayerCount: 2
Fore
SplineSet
0 0 m 1,0,-1
 0 512 l 1,1,-1
 170 512 l 1,2,-1
 170 682 l 1,3,-1
 341 682 l 1,4,-1
 341 853 l 1,5,-1
 512 853 l 1,6,-1
 512 1024 l 1,7,-1
 682 1024 l 1,8,-1
 682 1365 l 1,9,-1
 0 1365 l 1,10,-1
 0 1536 l 1,11,-1
 1024 1536 l 1,12,-1
 1024 1024 l 1,13,-1
 853 1024 l 1,14,-1
 853 853 l 1,15,-1
 682 853 l 1,16,-1
 682 682 l 1,17,-1
 512 682 l 1,18,-1
 512 512 l 1,19,-1
 341 512 l 1,20,-1
 341 170 l 1,21,-1
 1024 170 l 1,22,-1
 1024 0 l 1,23,-1
 0 0 l 1,0,-1
EndSplineSet
EndChar

StartChar: bracketleft
Encoding: 91 91 60
Width: 1365
GlyphClass: 1
Flags: W
LayerCount: 2
Fore
SplineSet
0 0 m 1,0,-1
 0 1536 l 1,1,-1
 682 1536 l 1,2,-1
 682 1365 l 1,3,-1
 341 1365 l 1,4,-1
 341 170 l 1,5,-1
 682 170 l 1,6,-1
 682 0 l 1,7,-1
 0 0 l 1,0,-1
EndSplineSet
EndChar

StartChar: backslash
Encoding: 92 92 61
Width: 1365
GlyphClass: 1
Flags: W
LayerCount: 2
Fore
SplineSet
682 0 m 1,0,-1
 682 341 l 1,1,-1
 512 341 l 1,2,-1
 512 682 l 1,3,-1
 341 682 l 1,4,-1
 341 1024 l 1,5,-1
 170 1024 l 1,6,-1
 170 1365 l 1,7,-1
 0 1365 l 1,8,-1
 0 1706 l 1,9,-1
 341 1706 l 1,10,-1
 341 1365 l 1,11,-1
 512 1365 l 1,12,-1
 512 1024 l 1,13,-1
 682 1024 l 1,14,-1
 682 682 l 1,15,-1
 853 682 l 1,16,-1
 853 341 l 1,17,-1
 1024 341 l 1,18,-1
 1024 0 l 1,19,-1
 682 0 l 1,0,-1
EndSplineSet
EndChar

StartChar: bracketright
Encoding: 93 93 62
Width: 1365
GlyphClass: 1
Flags: W
LayerCount: 2
Fore
SplineSet
0 0 m 1,0,-1
 0 170 l 1,1,-1
 341 170 l 1,2,-1
 341 1365 l 1,3,-1
 0 1365 l 1,4,-1
 0 1536 l 1,5,-1
 682 1536 l 1,6,-1
 682 0 l 1,7,-1
 0 0 l 1,0,-1
EndSplineSet
EndChar

StartChar: asciicircum
Encoding: 94 94 63
Width: 1365
GlyphClass: 1
Flags: W
LayerCount: 2
Fore
SplineSet
0 1024 m 1,0,-1
 0 1365 l 1,1,-1
 170 1365 l 1,2,-1
 170 1536 l 1,3,-1
 341 1536 l 1,4,-1
 341 1706 l 1,5,-1
 682 1706 l 1,6,-1
 682 1536 l 1,7,-1
 853 1536 l 1,8,-1
 853 1365 l 1,9,-1
 1024 1365 l 1,10,-1
 1024 1024 l 1,11,-1
 853 1024 l 1,12,-1
 853 1194 l 1,13,-1
 682 1194 l 1,14,-1
 682 1365 l 1,15,-1
 341 1365 l 1,16,-1
 341 1194 l 1,17,-1
 170 1194 l 1,18,-1
 170 1024 l 1,19,-1
 0 1024 l 1,0,-1
EndSplineSet
EndChar

StartChar: underscore
Encoding: 95 95 64
Width: 1365
GlyphClass: 1
Flags: W
LayerCount: 2
Fore
SplineSet
0 0 m 1,0,-1
 0 170 l 1,1,-1
 682 170 l 1,2,-1
 682 0 l 1,3,-1
 0 0 l 1,0,-1
EndSplineSet
EndChar

StartChar: grave
Encoding: 96 96 65
Width: 1365
GlyphClass: 1
Flags: W
LayerCount: 2
Fore
SplineSet
170 853 m 1,0,-1
 170 1024 l 1,1,-1
 341 1024 l 1,2,-1
 341 853 l 1,3,-1
 170 853 l 1,0,-1
0 1024 m 1,4,-1
 0 1536 l 1,5,-1
 341 1536 l 1,6,-1
 341 1194 l 1,7,-1
 170 1194 l 1,8,-1
 170 1024 l 1,9,-1
 0 1024 l 1,4,-1
EndSplineSet
EndChar

StartChar: a
Encoding: 97 97 66
Width: 1365
GlyphClass: 1
Flags: W
LayerCount: 2
Fore
SplineSet
682 170 m 1,0,-1
 682 512 l 1,1,-1
 341 512 l 1,2,-1
 341 170 l 1,3,-1
 682 170 l 1,0,-1
170 0 m 1,4,-1
 170 170 l 1,5,-1
 0 170 l 1,6,-1
 0 512 l 1,7,-1
 170 512 l 1,8,-1
 170 682 l 1,9,-1
 682 682 l 1,10,-1
 682 1024 l 1,11,-1
 341 1024 l 1,12,-1
 341 853 l 1,13,-1
 0 853 l 1,14,-1
 0 1024 l 1,15,-1
 170 1024 l 1,16,-1
 170 1194 l 1,17,-1
 853 1194 l 1,18,-1
 853 1024 l 1,19,-1
 1024 1024 l 1,20,-1
 1024 0 l 1,21,-1
 170 0 l 1,4,-1
EndSplineSet
EndChar

StartChar: b
Encoding: 98 98 67
Width: 1365
GlyphClass: 1
Flags: W
LayerCount: 2
Fore
SplineSet
682 170 m 1,0,-1
 682 1024 l 1,1,-1
 341 1024 l 1,2,-1
 341 170 l 1,3,-1
 682 170 l 1,0,-1
0 0 m 1,4,-1
 0 1536 l 1,5,-1
 341 1536 l 1,6,-1
 341 1194 l 1,7,-1
 853 1194 l 1,8,-1
 853 1024 l 1,9,-1
 1024 1024 l 1,10,-1
 1024 170 l 1,11,-1
 853 170 l 1,12,-1
 853 0 l 1,13,-1
 0 0 l 1,4,-1
EndSplineSet
EndChar

StartChar: c
Encoding: 99 99 68
Width: 1365
GlyphClass: 1
Flags: W
LayerCount: 2
Fore
SplineSet
170 0 m 1,0,-1
 170 170 l 1,1,-1
 0 170 l 1,2,-1
 0 1024 l 1,3,-1
 170 1024 l 1,4,-1
 170 1194 l 1,5,-1
 853 1194 l 1,6,-1
 853 1024 l 1,7,-1
 1024 1024 l 1,8,-1
 1024 682 l 1,9,-1
 682 682 l 1,10,-1
 682 1024 l 1,11,-1
 341 1024 l 1,12,-1
 341 170 l 1,13,-1
 682 170 l 1,14,-1
 682 512 l 1,15,-1
 1024 512 l 1,16,-1
 1024 170 l 1,17,-1
 853 170 l 1,18,-1
 853 0 l 1,19,-1
 170 0 l 1,0,-1
EndSplineSet
EndChar

StartChar: d
Encoding: 100 100 69
Width: 1365
GlyphClass: 1
Flags: W
LayerCount: 2
Fore
SplineSet
682 170 m 1,0,-1
 682 1024 l 1,1,-1
 341 1024 l 1,2,-1
 341 170 l 1,3,-1
 682 170 l 1,0,-1
170 0 m 1,4,-1
 170 170 l 1,5,-1
 0 170 l 1,6,-1
 0 1024 l 1,7,-1
 170 1024 l 1,8,-1
 170 1194 l 1,9,-1
 682 1194 l 1,10,-1
 682 1536 l 1,11,-1
 1024 1536 l 1,12,-1
 1024 0 l 1,13,-1
 170 0 l 1,4,-1
EndSplineSet
EndChar

StartChar: e
Encoding: 101 101 70
Width: 1365
GlyphClass: 1
Flags: W
LayerCount: 2
Fore
SplineSet
682 682 m 1,0,-1
 682 1024 l 1,1,-1
 341 1024 l 1,2,-1
 341 682 l 1,3,-1
 682 682 l 1,0,-1
170 0 m 1,4,-1
 170 170 l 1,5,-1
 0 170 l 1,6,-1
 0 1024 l 1,7,-1
 170 1024 l 1,8,-1
 170 1194 l 1,9,-1
 853 1194 l 1,10,-1
 853 1024 l 1,11,-1
 1024 1024 l 1,12,-1
 1024 512 l 1,13,-1
 341 512 l 1,14,-1
 341 170 l 1,15,-1
 682 170 l 1,16,-1
 682 341 l 1,17,-1
 1024 341 l 1,18,-1
 1024 170 l 1,19,-1
 853 170 l 1,20,-1
 853 0 l 1,21,-1
 170 0 l 1,4,-1
EndSplineSet
EndChar

StartChar: f
Encoding: 102 102 71
Width: 1365
GlyphClass: 1
Flags: W
LayerCount: 2
Fore
SplineSet
341 0 m 1,0,-1
 341 853 l 1,1,-1
 0 853 l 1,2,-1
 0 1024 l 1,3,-1
 341 1024 l 1,4,-1
 341 1365 l 1,5,-1
 512 1365 l 1,6,-1
 512 1536 l 1,7,-1
 1024 1536 l 1,8,-1
 1024 1365 l 1,9,-1
 682 1365 l 1,10,-1
 682 1024 l 1,11,-1
 1024 1024 l 1,12,-1
 1024 853 l 1,13,-1
 682 853 l 1,14,-1
 682 0 l 1,15,-1
 341 0 l 1,0,-1
EndSplineSet
EndChar

StartChar: g
Encoding: 103 103 72
Width: 1365
GlyphClass: 1
Flags: W
LayerCount: 2
Fore
SplineSet
682 170 m 1,0,-1
 682 1024 l 1,1,-1
 341 1024 l 1,2,-1
 341 170 l 1,3,-1
 682 170 l 1,0,-1
170 -512 m 1,4,-1
 170 -341 l 1,5,-1
 0 -341 l 1,6,-1
 0 -170 l 1,7,-1
 341 -170 l 1,8,-1
 341 -341 l 1,9,-1
 682 -341 l 1,10,-1
 682 0 l 1,11,-1
 170 0 l 1,12,-1
 170 170 l 1,13,-1
 0 170 l 1,14,-1
 0 1024 l 1,15,-1
 170 1024 l 1,16,-1
 170 1194 l 1,17,-1
 1024 1194 l 1,18,-1
 1024 -341 l 1,19,-1
 853 -341 l 1,20,-1
 853 -512 l 1,21,-1
 170 -512 l 1,4,-1
EndSplineSet
EndChar

StartChar: h
Encoding: 104 104 73
Width: 1365
GlyphClass: 1
Flags: W
LayerCount: 2
Fore
SplineSet
0 0 m 1,0,-1
 0 1536 l 1,1,-1
 341 1536 l 1,2,-1
 341 1194 l 1,3,-1
 853 1194 l 1,4,-1
 853 1024 l 1,5,-1
 1024 1024 l 1,6,-1
 1024 0 l 1,7,-1
 682 0 l 1,8,-1
 682 1024 l 1,9,-1
 341 1024 l 1,10,-1
 341 0 l 1,11,-1
 0 0 l 1,0,-1
EndSplineSet
EndChar

StartChar: i
Encoding: 105 105 74
Width: 1365
GlyphClass: 1
Flags: W
LayerCount: 2
Fore
SplineSet
0 0 m 1,0,-1
 0 170 l 1,1,-1
 341 170 l 1,2,-1
 341 1024 l 1,3,-1
 0 1024 l 1,4,-1
 0 1194 l 1,5,-1
 682 1194 l 1,6,-1
 682 170 l 1,7,-1
 1024 170 l 1,8,-1
 1024 0 l 1,9,-1
 0 0 l 1,0,-1
341 1365 m 1,10,-1
 341 1706 l 1,11,-1
 682 1706 l 1,12,-1
 682 1365 l 1,13,-1
 341 1365 l 1,10,-1
EndSplineSet
EndChar

StartChar: j
Encoding: 106 106 75
Width: 1365
GlyphClass: 1
Flags: W
LayerCount: 2
Fore
SplineSet
170 -512 m 1,0,-1
 170 -341 l 1,1,-1
 0 -341 l 1,2,-1
 0 -170 l 1,3,-1
 341 -170 l 1,4,-1
 341 -341 l 1,5,-1
 682 -341 l 1,6,-1
 682 1024 l 1,7,-1
 341 1024 l 1,8,-1
 341 1194 l 1,9,-1
 1024 1194 l 1,10,-1
 1024 -341 l 1,11,-1
 853 -341 l 1,12,-1
 853 -512 l 1,13,-1
 170 -512 l 1,0,-1
682 1365 m 1,14,-1
 682 1706 l 1,15,-1
 1024 1706 l 1,16,-1
 1024 1365 l 1,17,-1
 682 1365 l 1,14,-1
EndSplineSet
EndChar

StartChar: k
Encoding: 107 107 76
Width: 1365
GlyphClass: 1
Flags: W
LayerCount: 2
Fore
SplineSet
0 0 m 1,0,-1
 0 1536 l 1,1,-1
 341 1536 l 1,2,-1
 341 682 l 1,3,-1
 512 682 l 1,4,-1
 512 853 l 1,5,-1
 682 853 l 1,6,-1
 682 1194 l 1,7,-1
 1024 1194 l 1,8,-1
 1024 853 l 1,9,-1
 853 853 l 1,10,-1
 853 682 l 1,11,-1
 682 682 l 1,12,-1
 682 512 l 1,13,-1
 853 512 l 1,14,-1
 853 341 l 1,15,-1
 1024 341 l 1,16,-1
 1024 0 l 1,17,-1
 682 0 l 1,18,-1
 682 341 l 1,19,-1
 512 341 l 1,20,-1
 512 512 l 1,21,-1
 341 512 l 1,22,-1
 341 0 l 1,23,-1
 0 0 l 1,0,-1
EndSplineSet
EndChar

StartChar: l
Encoding: 108 108 77
Width: 1365
GlyphClass: 1
Flags: W
LayerCount: 2
Fore
SplineSet
0 0 m 1,0,-1
 0 170 l 1,1,-1
 341 170 l 1,2,-1
 341 1365 l 1,3,-1
 0 1365 l 1,4,-1
 0 1536 l 1,5,-1
 682 1536 l 1,6,-1
 682 170 l 1,7,-1
 1024 170 l 1,8,-1
 1024 0 l 1,9,-1
 0 0 l 1,0,-1
EndSplineSet
EndChar

StartChar: m
Encoding: 109 109 78
Width: 1365
GlyphClass: 1
Flags: W
LayerCount: 2
Fore
SplineSet
0 0 m 1,0,-1
 0 1194 l 1,1,-1
 512 1194 l 1,2,-1
 512 1024 l 1,3,-1
 682 1024 l 1,4,-1
 682 1194 l 1,5,-1
 1024 1194 l 1,6,-1
 1024 1024 l 1,7,-1
 1194 1024 l 1,8,-1
 1194 0 l 1,9,-1
 853 0 l 1,10,-1
 853 853 l 1,11,-1
 682 853 l 1,12,-1
 682 170 l 1,13,-1
 512 170 l 1,14,-1
 512 853 l 1,15,-1
 341 853 l 1,16,-1
 341 0 l 1,17,-1
 0 0 l 1,0,-1
EndSplineSet
EndChar

StartChar: n
Encoding: 110 110 79
Width: 1365
GlyphClass: 1
Flags: W
LayerCount: 2
Fore
SplineSet
0 0 m 1,0,-1
 0 1194 l 1,1,-1
 853 1194 l 1,2,-1
 853 1024 l 1,3,-1
 1024 1024 l 1,4,-1
 1024 0 l 1,5,-1
 682 0 l 1,6,-1
 682 1024 l 1,7,-1
 341 1024 l 1,8,-1
 341 0 l 1,9,-1
 0 0 l 1,0,-1
EndSplineSet
EndChar

StartChar: o
Encoding: 111 111 80
Width: 1365
GlyphClass: 1
Flags: W
LayerCount: 2
Fore
SplineSet
682 170 m 1,0,-1
 682 1024 l 1,1,-1
 341 1024 l 1,2,-1
 341 170 l 1,3,-1
 682 170 l 1,0,-1
170 0 m 1,4,-1
 170 170 l 1,5,-1
 0 170 l 1,6,-1
 0 1024 l 1,7,-1
 170 1024 l 1,8,-1
 170 1194 l 1,9,-1
 853 1194 l 1,10,-1
 853 1024 l 1,11,-1
 1024 1024 l 1,12,-1
 1024 170 l 1,13,-1
 853 170 l 1,14,-1
 853 0 l 1,15,-1
 170 0 l 1,4,-1
EndSplineSet
EndChar

StartChar: p
Encoding: 112 112 81
Width: 1365
GlyphClass: 1
Flags: W
LayerCount: 2
Fore
SplineSet
682 170 m 1,0,-1
 682 1024 l 1,1,-1
 341 1024 l 1,2,-1
 341 170 l 1,3,-1
 682 170 l 1,0,-1
0 -512 m 1,4,-1
 0 1194 l 1,5,-1
 853 1194 l 1,6,-1
 853 1024 l 1,7,-1
 1024 1024 l 1,8,-1
 1024 170 l 1,9,-1
 853 170 l 1,10,-1
 853 0 l 1,11,-1
 341 0 l 1,12,-1
 341 -512 l 1,13,-1
 0 -512 l 1,4,-1
EndSplineSet
EndChar

StartChar: q
Encoding: 113 113 82
Width: 1365
GlyphClass: 1
Flags: W
LayerCount: 2
Fore
SplineSet
682 170 m 1,0,-1
 682 1024 l 1,1,-1
 341 1024 l 1,2,-1
 341 170 l 1,3,-1
 682 170 l 1,0,-1
682 -512 m 1,4,-1
 682 0 l 1,5,-1
 170 0 l 1,6,-1
 170 170 l 1,7,-1
 0 170 l 1,8,-1
 0 1024 l 1,9,-1
 170 1024 l 1,10,-1
 170 1194 l 1,11,-1
 1024 1194 l 1,12,-1
 1024 -512 l 1,13,-1
 682 -512 l 1,4,-1
EndSplineSet
EndChar

StartChar: r
Encoding: 114 114 83
Width: 1365
GlyphClass: 1
Flags: W
LayerCount: 2
Fore
SplineSet
0 0 m 1,0,-1
 0 1194 l 1,1,-1
 853 1194 l 1,2,-1
 853 1024 l 1,3,-1
 1024 1024 l 1,4,-1
 1024 682 l 1,5,-1
 682 682 l 1,6,-1
 682 1024 l 1,7,-1
 341 1024 l 1,8,-1
 341 0 l 1,9,-1
 0 0 l 1,0,-1
EndSplineSet
EndChar

StartChar: s
Encoding: 115 115 84
Width: 1365
GlyphClass: 1
Flags: W
LayerCount: 2
Fore
SplineSet
170 0 m 1,0,-1
 170 170 l 1,1,-1
 0 170 l 1,2,-1
 0 341 l 1,3,-1
 341 341 l 1,4,-1
 341 170 l 1,5,-1
 682 170 l 1,6,-1
 682 512 l 1,7,-1
 170 512 l 1,8,-1
 170 682 l 1,9,-1
 0 682 l 1,10,-1
 0 1024 l 1,11,-1
 170 1024 l 1,12,-1
 170 1194 l 1,13,-1
 853 1194 l 1,14,-1
 853 1024 l 1,15,-1
 1024 1024 l 1,16,-1
 1024 853 l 1,17,-1
 682 853 l 1,18,-1
 682 1024 l 1,19,-1
 341 1024 l 1,20,-1
 341 682 l 1,21,-1
 853 682 l 1,22,-1
 853 512 l 1,23,-1
 1024 512 l 1,24,-1
 1024 170 l 1,25,-1
 853 170 l 1,26,-1
 853 0 l 1,27,-1
 170 0 l 1,0,-1
EndSplineSet
EndChar

StartChar: t
Encoding: 116 116 85
Width: 1365
GlyphClass: 1
Flags: W
LayerCount: 2
Fore
SplineSet
512 0 m 1,0,-1
 512 170 l 1,1,-1
 341 170 l 1,2,-1
 341 1024 l 1,3,-1
 0 1024 l 1,4,-1
 0 1194 l 1,5,-1
 341 1194 l 1,6,-1
 341 1536 l 1,7,-1
 682 1536 l 1,8,-1
 682 1194 l 1,9,-1
 1024 1194 l 1,10,-1
 1024 1024 l 1,11,-1
 682 1024 l 1,12,-1
 682 170 l 1,13,-1
 1024 170 l 1,14,-1
 1024 0 l 1,15,-1
 512 0 l 1,0,-1
EndSplineSet
EndChar

StartChar: u
Encoding: 117 117 86
Width: 1365
GlyphClass: 1
Flags: W
LayerCount: 2
Fore
SplineSet
170 0 m 1,0,-1
 170 170 l 1,1,-1
 0 170 l 1,2,-1
 0 1194 l 1,3,-1
 341 1194 l 1,4,-1
 341 170 l 1,5,-1
 682 170 l 1,6,-1
 682 1194 l 1,7,-1
 1024 1194 l 1,8,-1
 1024 0 l 1,9,-1
 170 0 l 1,0,-1
EndSplineSet
EndChar

StartChar: v
Encoding: 118 118 87
Width: 1365
GlyphClass: 1
Flags: W
LayerCount: 2
Fore
SplineSet
341 0 m 1,0,-1
 341 341 l 1,1,-1
 170 341 l 1,2,-1
 170 682 l 1,3,-1
 0 682 l 1,4,-1
 0 1194 l 1,5,-1
 341 1194 l 1,6,-1
 341 682 l 1,7,-1
 682 682 l 1,8,-1
 682 1194 l 1,9,-1
 1024 1194 l 1,10,-1
 1024 682 l 1,11,-1
 853 682 l 1,12,-1
 853 341 l 1,13,-1
 682 341 l 1,14,-1
 682 0 l 1,15,-1
 341 0 l 1,0,-1
EndSplineSet
EndChar

StartChar: w
Encoding: 119 119 88
Width: 1365
GlyphClass: 1
Flags: W
LayerCount: 2
Fore
SplineSet
512 341 m 1,0,-1
 512 1024 l 1,1,-1
 682 1024 l 1,2,-1
 682 341 l 1,3,-1
 512 341 l 1,0,-1
170 0 m 1,4,-1
 170 341 l 1,5,-1
 0 341 l 1,6,-1
 0 1194 l 1,7,-1
 341 1194 l 1,8,-1
 341 341 l 1,9,-1
 512 341 l 1,10,-1
 512 0 l 1,11,-1
 170 0 l 1,4,-1
682 0 m 1,12,-1
 682 341 l 1,13,-1
 853 341 l 1,14,-1
 853 1194 l 1,15,-1
 1194 1194 l 1,16,-1
 1194 341 l 1,17,-1
 1024 341 l 1,18,-1
 1024 0 l 1,19,-1
 682 0 l 1,12,-1
EndSplineSet
EndChar

StartChar: x
Encoding: 120 120 89
Width: 1365
GlyphClass: 1
Flags: W
LayerCount: 2
Fore
SplineSet
0 0 m 1,0,-1
 0 341 l 1,1,-1
 170 341 l 1,2,-1
 170 512 l 1,3,-1
 341 512 l 1,4,-1
 341 682 l 1,5,-1
 170 682 l 1,6,-1
 170 853 l 1,7,-1
 0 853 l 1,8,-1
 0 1194 l 1,9,-1
 341 1194 l 1,10,-1
 341 853 l 1,11,-1
 682 853 l 1,12,-1
 682 1194 l 1,13,-1
 1024 1194 l 1,14,-1
 1024 853 l 1,15,-1
 853 853 l 1,16,-1
 853 682 l 1,17,-1
 682 682 l 1,18,-1
 682 512 l 1,19,-1
 853 512 l 1,20,-1
 853 341 l 1,21,-1
 1024 341 l 1,22,-1
 1024 0 l 1,23,-1
 682 0 l 1,24,-1
 682 341 l 1,25,-1
 341 341 l 1,26,-1
 341 0 l 1,27,-1
 0 0 l 1,0,-1
EndSplineSet
EndChar

StartChar: y
Encoding: 121 121 90
Width: 1365
GlyphClass: 1
Flags: W
LayerCount: 2
Fore
SplineSet
170 -512 m 1,0,-1
 170 -341 l 1,1,-1
 0 -341 l 1,2,-1
 0 -170 l 1,3,-1
 341 -170 l 1,4,-1
 341 -341 l 1,5,-1
 682 -341 l 1,6,-1
 682 0 l 1,7,-1
 170 0 l 1,8,-1
 170 170 l 1,9,-1
 0 170 l 1,10,-1
 0 1194 l 1,11,-1
 341 1194 l 1,12,-1
 341 170 l 1,13,-1
 682 170 l 1,14,-1
 682 1194 l 1,15,-1
 1024 1194 l 1,16,-1
 1024 -341 l 1,17,-1
 853 -341 l 1,18,-1
 853 -512 l 1,19,-1
 170 -512 l 1,0,-1
EndSplineSet
EndChar

StartChar: z
Encoding: 122 122 91
Width: 1365
GlyphClass: 1
Flags: W
LayerCount: 2
Fore
SplineSet
0 0 m 1,0,-1
 0 341 l 1,1,-1
 170 341 l 1,2,-1
 170 512 l 1,3,-1
 341 512 l 1,4,-1
 341 682 l 1,5,-1
 512 682 l 1,6,-1
 512 853 l 1,7,-1
 682 853 l 1,8,-1
 682 1024 l 1,9,-1
 0 1024 l 1,10,-1
 0 1194 l 1,11,-1
 1024 1194 l 1,12,-1
 1024 853 l 1,13,-1
 853 853 l 1,14,-1
 853 682 l 1,15,-1
 682 682 l 1,16,-1
 682 512 l 1,17,-1
 512 512 l 1,18,-1
 512 341 l 1,19,-1
 341 341 l 1,20,-1
 341 170 l 1,21,-1
 1024 170 l 1,22,-1
 1024 0 l 1,23,-1
 0 0 l 1,0,-1
EndSplineSet
EndChar

StartChar: braceleft
Encoding: 123 123 92
Width: 1365
GlyphClass: 1
Flags: W
LayerCount: 2
Fore
SplineSet
341 0 m 1,0,-1
 341 170 l 1,1,-1
 170 170 l 1,2,-1
 170 682 l 1,3,-1
 0 682 l 1,4,-1
 0 853 l 1,5,-1
 170 853 l 1,6,-1
 170 1365 l 1,7,-1
 341 1365 l 1,8,-1
 341 1536 l 1,9,-1
 853 1536 l 1,10,-1
 853 1365 l 1,11,-1
 512 1365 l 1,12,-1
 512 853 l 1,13,-1
 341 853 l 1,14,-1
 341 682 l 1,15,-1
 512 682 l 1,16,-1
 512 170 l 1,17,-1
 853 170 l 1,18,-1
 853 0 l 1,19,-1
 341 0 l 1,0,-1
EndSplineSet
EndChar

StartChar: bar
Encoding: 124 124 93
Width: 1365
GlyphClass: 1
Flags: W
LayerCount: 2
Fore
SplineSet
0 0 m 1,0,-1
 0 1536 l 1,1,-1
 341 1536 l 1,2,-1
 341 0 l 1,3,-1
 0 0 l 1,0,-1
EndSplineSet
EndChar

StartChar: braceright
Encoding: 125 125 94
Width: 1365
GlyphClass: 1
Flags: W
LayerCount: 2
Fore
SplineSet
0 0 m 1,0,-1
 0 170 l 1,1,-1
 341 170 l 1,2,-1
 341 682 l 1,3,-1
 512 682 l 1,4,-1
 512 853 l 1,5,-1
 341 853 l 1,6,-1
 341 1365 l 1,7,-1
 0 1365 l 1,8,-1
 0 1536 l 1,9,-1
 512 1536 l 1,10,-1
 512 1365 l 1,11,-1
 682 1365 l 1,12,-1
 682 853 l 1,13,-1
 853 853 l 1,14,-1
 853 682 l 1,15,-1
 682 682 l 1,16,-1
 682 170 l 1,17,-1
 512 170 l 1,18,-1
 512 0 l 1,19,-1
 0 0 l 1,0,-1
EndSplineSet
EndChar

StartChar: asciitilde
Encoding: 126 126 95
Width: 1365
GlyphClass: 1
Flags: W
LayerCount: 2
Fore
SplineSet
0 682 m 1,0,-1
 0 853 l 1,1,-1
 170 853 l 1,2,-1
 170 1024 l 1,3,-1
 682 1024 l 1,4,-1
 682 853 l 1,5,-1
 853 853 l 1,6,-1
 853 1024 l 1,7,-1
 1194 1024 l 1,8,-1
 1194 853 l 1,9,-1
 1024 853 l 1,10,-1
 1024 682 l 1,11,-1
 512 682 l 1,12,-1
 512 853 l 1,13,-1
 341 853 l 1,14,-1
 341 682 l 1,15,-1
 0 682 l 1,0,-1
EndSplineSet
EndChar

StartChar: uni0401
Encoding: 1025 1025 97
Width: 1365
GlyphClass: 1
Flags: W
LayerCount: 2
Fore
SplineSet
0 0 m 1,0,-1
 0 1536 l 1,1,-1
 1024 1536 l 1,2,-1
 1024 1365 l 1,3,-1
 341 1365 l 1,4,-1
 341 853 l 1,5,-1
 853 853 l 1,6,-1
 853 682 l 1,7,-1
 341 682 l 1,8,-1
 341 170 l 1,9,-1
 1024 170 l 1,10,-1
 1024 0 l 1,11,-1
 0 0 l 1,0,-1
170 1706 m 1,12,-1
 170 1877 l 1,13,-1
 341 1877 l 1,14,-1
 341 1706 l 1,15,-1
 170 1706 l 1,12,-1
512 1706 m 1,16,-1
 512 1877 l 1,17,-1
 682 1877 l 1,18,-1
 682 1706 l 1,19,-1
 512 1706 l 1,16,-1
EndSplineSet
EndChar

StartChar: uni0410
Encoding: 1040 1040 98
Width: 1194
GlyphClass: 1
Flags: W
LayerCount: 2
Fore
SplineSet
692 666 m 1,0,-1
 682 1365 l 1,1,-1
 341 1365 l 1,2,-1
 341 682 l 1,3,-1
 692 666 l 1,0,-1
0 0 m 1,4,-1
 0 1365 l 1,5,-1
 170 1365 l 1,6,-1
 170 1536 l 1,7,-1
 853 1536 l 1,8,-1
 857 1366 l 1,9,-1
 1024 1365 l 1,10,-1
 1024 0 l 1,11,-1
 682 0 l 1,12,-1
 682 512 l 1,13,-1
 341 512 l 1,14,-1
 341 0 l 1,15,-1
 0 0 l 1,4,-1
EndSplineSet
EndChar

StartChar: uni0411
Encoding: 1041 1041 99
Width: 1194
GlyphClass: 1
Flags: W
LayerCount: 2
Fore
SplineSet
682 170 m 1,0,-1
 682 682 l 1,1,-1
 341 682 l 1,2,-1
 341 170 l 1,3,-1
 682 170 l 1,0,-1
0 0 m 1,4,-1
 0 1536 l 1,5,-1
 1024 1536 l 1,6,-1
 1024 1365 l 1,7,-1
 341 1365 l 1,8,-1
 341 853 l 1,9,-1
 853 853 l 1,10,-1
 853 682 l 1,11,-1
 1024 682 l 1,12,-1
 1024 170 l 1,13,-1
 853 170 l 1,14,-1
 853 0 l 1,15,-1
 0 0 l 1,4,-1
EndSplineSet
EndChar

StartChar: uni0412
Encoding: 1042 1042 100
Width: 1194
GlyphClass: 1
Flags: W
LayerCount: 2
Fore
SplineSet
682 170 m 1,0,-1
 682 682 l 1,1,-1
 341 682 l 1,2,-1
 341 170 l 1,3,-1
 682 170 l 1,0,-1
682 853 m 1,4,-1
 682 1365 l 1,5,-1
 341 1365 l 1,6,-1
 341 853 l 1,7,-1
 682 853 l 1,4,-1
0 0 m 1,8,-1
 0 1536 l 1,9,-1
 853 1536 l 1,10,-1
 853 1365 l 1,11,-1
 1024 1365 l 1,12,-1
 1024 853 l 1,13,-1
 853 853 l 1,14,-1
 853 682 l 1,15,-1
 1024 682 l 1,16,-1
 1024 170 l 1,17,-1
 853 170 l 1,18,-1
 853 0 l 1,19,-1
 0 0 l 1,8,-1
EndSplineSet
EndChar

StartChar: uni0413
Encoding: 1043 1043 101
Width: 1194
GlyphClass: 1
Flags: W
LayerCount: 2
Fore
SplineSet
0 0 m 1,0,-1
 0 1536 l 1,1,-1
 1024 1536 l 1,2,-1
 1024 1365 l 1,3,-1
 341 1365 l 1,4,-1
 341 0 l 1,5,-1
 0 0 l 1,0,-1
EndSplineSet
EndChar

StartChar: uni0414
Encoding: 1044 1044 102
Width: 1365
GlyphClass: 1
Flags: W
LayerCount: 2
Fore
SplineSet
682 341 m 1,0,-1
 682 1365 l 1,1,-1
 512 1365 l 1,2,-1
 512 341 l 1,3,-1
 682 341 l 1,0,-1
0 0 m 1,4,-1
 0 341 l 1,5,-1
 170 341 l 1,6,-1
 170 1536 l 1,7,-1
 1024 1536 l 1,8,-1
 1024 341 l 1,9,-1
 1194 341 l 1,10,-1
 1194 0 l 1,11,-1
 853 0 l 1,12,-1
 853 170 l 1,13,-1
 341 170 l 1,14,-1
 341 0 l 1,15,-1
 0 0 l 1,4,-1
EndSplineSet
EndChar

StartChar: uni0415
Encoding: 1045 1045 103
Width: 1194
GlyphClass: 1
Flags: W
LayerCount: 2
Fore
SplineSet
0 0 m 1,0,-1
 0 1536 l 1,1,-1
 1024 1536 l 1,2,-1
 1024 1365 l 1,3,-1
 341 1365 l 1,4,-1
 341 853 l 1,5,-1
 853 853 l 1,6,-1
 853 682 l 1,7,-1
 341 682 l 1,8,-1
 341 170 l 1,9,-1
 1024 170 l 1,10,-1
 1024 0 l 1,11,-1
 0 0 l 1,0,-1
EndSplineSet
EndChar

StartChar: uni0416
Encoding: 1046 1046 104
Width: 1365
GlyphClass: 1
Flags: W
LayerCount: 2
Fore
SplineSet
0 0 m 1,0,-1
 0 341 l 1,1,-1
 170 341 l 1,2,-1
 170 682 l 1,3,-1
 341 682 l 1,4,-1
 341 853 l 1,5,-1
 170 853 l 1,6,-1
 170 1194 l 1,7,-1
 0 1194 l 1,8,-1
 0 1536 l 1,9,-1
 341 1536 l 1,10,-1
 341 1194 l 1,11,-1
 512 1194 l 1,12,-1
 512 1536 l 1,13,-1
 682 1536 l 1,14,-1
 682 1194 l 1,15,-1
 853 1194 l 1,16,-1
 853 1536 l 1,17,-1
 1194 1536 l 1,18,-1
 1194 1194 l 1,19,-1
 1024 1194 l 1,20,-1
 1024 853 l 1,21,-1
 853 853 l 1,22,-1
 853 682 l 1,23,-1
 1024 682 l 1,24,-1
 1024 341 l 1,25,-1
 1194 341 l 1,26,-1
 1194 0 l 1,27,-1
 853 0 l 1,28,-1
 853 341 l 1,29,-1
 682 341 l 1,30,-1
 682 0 l 1,31,-1
 512 0 l 1,32,-1
 512 341 l 1,33,-1
 341 341 l 1,34,-1
 341 0 l 1,35,-1
 0 0 l 1,0,-1
EndSplineSet
EndChar

StartChar: uni0417
Encoding: 1047 1047 105
Width: 1194
GlyphClass: 1
Flags: W
LayerCount: 2
Fore
SplineSet
170 0 m 1,0,-1
 170 170 l 1,1,-1
 0 170 l 1,2,-1
 0 512 l 1,3,-1
 341 512 l 1,4,-1
 341 170 l 1,5,-1
 682 170 l 1,6,-1
 682 682 l 1,7,-1
 341 682 l 1,8,-1
 341 853 l 1,9,-1
 682 853 l 1,10,-1
 682 1365 l 1,11,-1
 341 1365 l 1,12,-1
 341 1024 l 1,13,-1
 0 1024 l 1,14,-1
 0 1365 l 1,15,-1
 170 1365 l 1,16,-1
 170 1536 l 1,17,-1
 853 1536 l 1,18,-1
 853 1365 l 1,19,-1
 1024 1365 l 1,20,-1
 1024 853 l 1,21,-1
 853 853 l 1,22,-1
 853 682 l 1,23,-1
 1024 682 l 1,24,-1
 1024 170 l 1,25,-1
 853 170 l 1,26,-1
 853 0 l 1,27,-1
 170 0 l 1,0,-1
EndSplineSet
EndChar

StartChar: uni0418
Encoding: 1048 1048 106
Width: 1194
GlyphClass: 1
Flags: W
LayerCount: 2
Fore
SplineSet
0 0 m 1,0,-1
 0 1536 l 1,1,-1
 341 1536 l 1,2,-1
 341 853 l 1,3,-1
 512 853 l 1,4,-1
 512 1024 l 1,5,-1
 682 1024 l 1,6,-1
 682 1536 l 1,7,-1
 1024 1536 l 1,8,-1
 1024 0 l 1,9,-1
 682 0 l 1,10,-1
 682 682 l 1,11,-1
 512 682 l 1,12,-1
 512 512 l 1,13,-1
 341 512 l 1,14,-1
 341 0 l 1,15,-1
 0 0 l 1,0,-1
EndSplineSet
EndChar

StartChar: uni0419
Encoding: 1049 1049 107
Width: 1194
GlyphClass: 1
Flags: W
LayerCount: 2
Fore
SplineSet
0 0 m 1,0,-1
 0 1536 l 1,1,-1
 341 1536 l 1,2,-1
 341 853 l 1,3,-1
 512 853 l 1,4,-1
 512 1024 l 1,5,-1
 682 1024 l 1,6,-1
 682 1536 l 1,7,-1
 1024 1536 l 1,8,-1
 1024 0 l 1,9,-1
 682 0 l 1,10,-1
 682 682 l 1,11,-1
 512 682 l 1,12,-1
 512 512 l 1,13,-1
 341 512 l 1,14,-1
 341 0 l 1,15,-1
 0 0 l 1,0,-1
341 1536 m 1,16,-1
 341 1706 l 1,17,-1
 682 1706 l 1,18,-1
 682 1536 l 1,19,-1
 341 1536 l 1,16,-1
EndSplineSet
EndChar

StartChar: uni041A
Encoding: 1050 1050 108
Width: 1194
GlyphClass: 1
Flags: W
LayerCount: 2
Fore
SplineSet
0 0 m 1,0,-1
 0 1536 l 1,1,-1
 341 1536 l 1,2,-1
 341 853 l 1,3,-1
 512 853 l 1,4,-1
 512 1194 l 1,5,-1
 682 1194 l 1,6,-1
 682 1536 l 1,7,-1
 1024 1536 l 1,8,-1
 1024 1194 l 1,9,-1
 853 1194 l 1,10,-1
 853 853 l 1,11,-1
 682 853 l 1,12,-1
 682 682 l 1,13,-1
 853 682 l 1,14,-1
 853 341 l 1,15,-1
 1024 341 l 1,16,-1
 1024 0 l 1,17,-1
 682 0 l 1,18,-1
 682 341 l 1,19,-1
 512 341 l 1,20,-1
 512 682 l 1,21,-1
 341 682 l 1,22,-1
 341 0 l 1,23,-1
 0 0 l 1,0,-1
EndSplineSet
EndChar

StartChar: uni041B
Encoding: 1051 1051 109
Width: 1194
GlyphClass: 1
Flags: W
LayerCount: 2
Fore
SplineSet
0 0 m 1,0,-1
 0 341 l 1,1,-1
 170 341 l 1,2,-1
 170 1365 l 1,3,-1
 341 1365 l 1,4,-1
 341 1536 l 1,5,-1
 1024 1536 l 1,6,-1
 1024 0 l 1,7,-1
 682 0 l 1,8,-1
 682 1365 l 1,9,-1
 512 1365 l 1,10,-1
 512 170 l 1,11,-1
 341 170 l 1,12,-1
 341 0 l 1,13,-1
 0 0 l 1,0,-1
EndSplineSet
EndChar

StartChar: uni041C
Encoding: 1052 1052 110
Width: 1365
GlyphClass: 1
Flags: W
LayerCount: 2
Fore
SplineSet
0 0 m 1,0,-1
 0 1536 l 1,1,-1
 170 1536 l 1,2,-1
 170 1365 l 1,3,-1
 341 1365 l 1,4,-1
 341 1194 l 1,5,-1
 512 1194 l 1,6,-1
 512 1024 l 1,7,-1
 682 1024 l 1,8,-1
 682 1194 l 1,9,-1
 853 1194 l 1,10,-1
 853 1365 l 1,11,-1
 1024 1365 l 1,12,-1
 1024 1536 l 1,13,-1
 1194 1536 l 1,14,-1
 1194 0 l 1,15,-1
 853 0 l 1,16,-1
 853 853 l 1,17,-1
 682 853 l 1,18,-1
 682 682 l 1,19,-1
 512 682 l 1,20,-1
 512 853 l 1,21,-1
 341 853 l 1,22,-1
 341 0 l 1,23,-1
 0 0 l 1,0,-1
EndSplineSet
EndChar

StartChar: uni041D
Encoding: 1053 1053 111
Width: 1194
GlyphClass: 1
Flags: W
LayerCount: 2
Fore
SplineSet
0 0 m 1,0,-1
 0 1536 l 1,1,-1
 341 1536 l 1,2,-1
 341 853 l 1,3,-1
 682 853 l 1,4,-1
 682 1536 l 1,5,-1
 1024 1536 l 1,6,-1
 1024 0 l 1,7,-1
 682 0 l 1,8,-1
 682 682 l 1,9,-1
 341 682 l 1,10,-1
 341 0 l 1,11,-1
 0 0 l 1,0,-1
EndSplineSet
EndChar

StartChar: uni041E
Encoding: 1054 1054 112
Width: 1194
GlyphClass: 1
Flags: W
LayerCount: 2
Fore
SplineSet
682 170 m 1,0,-1
 682 1365 l 1,1,-1
 341 1365 l 1,2,-1
 341 170 l 1,3,-1
 682 170 l 1,0,-1
170 0 m 1,4,-1
 170 170 l 1,5,-1
 0 170 l 1,6,-1
 0 1365 l 1,7,-1
 170 1365 l 1,8,-1
 170 1536 l 1,9,-1
 853 1536 l 1,10,-1
 853 1365 l 1,11,-1
 1024 1365 l 1,12,-1
 1024 170 l 1,13,-1
 853 170 l 1,14,-1
 853 0 l 1,15,-1
 170 0 l 1,4,-1
EndSplineSet
EndChar

StartChar: uni041F
Encoding: 1055 1055 113
Width: 1194
GlyphClass: 1
Flags: W
LayerCount: 2
Fore
SplineSet
0 0 m 1,0,-1
 0 1536 l 1,1,-1
 1024 1536 l 1,2,-1
 1024 0 l 1,3,-1
 682 0 l 1,4,-1
 682 1365 l 1,5,-1
 341 1365 l 1,6,-1
 341 0 l 1,7,-1
 0 0 l 1,0,-1
EndSplineSet
EndChar

StartChar: uni0420
Encoding: 1056 1056 114
Width: 1194
GlyphClass: 1
Flags: W
LayerCount: 2
Fore
SplineSet
682 853 m 1,0,-1
 682 1365 l 1,1,-1
 341 1365 l 1,2,-1
 341 853 l 1,3,-1
 682 853 l 1,0,-1
0 0 m 1,4,-1
 0 1536 l 1,5,-1
 853 1536 l 1,6,-1
 853 1365 l 1,7,-1
 1024 1365 l 1,8,-1
 1024 853 l 1,9,-1
 853 853 l 1,10,-1
 853 682 l 1,11,-1
 341 682 l 1,12,-1
 341 0 l 1,13,-1
 0 0 l 1,4,-1
EndSplineSet
EndChar

StartChar: uni0421
Encoding: 1057 1057 115
Width: 1194
GlyphClass: 1
Flags: W
LayerCount: 2
Fore
SplineSet
170 0 m 1,0,-1
 170 170 l 1,1,-1
 0 170 l 1,2,-1
 0 1365 l 1,3,-1
 170 1365 l 1,4,-1
 170 1536 l 1,5,-1
 853 1536 l 1,6,-1
 853 1365 l 1,7,-1
 1024 1365 l 1,8,-1
 1024 1024 l 1,9,-1
 682 1024 l 1,10,-1
 682 1365 l 1,11,-1
 341 1365 l 1,12,-1
 341 170 l 1,13,-1
 682 170 l 1,14,-1
 682 512 l 1,15,-1
 1024 512 l 1,16,-1
 1024 170 l 1,17,-1
 853 170 l 1,18,-1
 853 0 l 1,19,-1
 170 0 l 1,0,-1
EndSplineSet
EndChar

StartChar: uni0422
Encoding: 1058 1058 116
Width: 1194
GlyphClass: 1
Flags: W
LayerCount: 2
Fore
SplineSet
341 0 m 1,0,-1
 341 1365 l 1,1,-1
 0 1365 l 1,2,-1
 0 1536 l 1,3,-1
 1024 1536 l 1,4,-1
 1024 1365 l 1,5,-1
 682 1365 l 1,6,-1
 682 0 l 1,7,-1
 341 0 l 1,0,-1
EndSplineSet
EndChar

StartChar: uni0423
Encoding: 1059 1059 117
Width: 1194
GlyphClass: 1
Flags: W
LayerCount: 2
Fore
SplineSet
170 0 m 1,0,-1
 170 170 l 1,1,-1
 0 170 l 1,2,-1
 0 341 l 1,3,-1
 341 341 l 1,4,-1
 341 170 l 1,5,-1
 682 170 l 1,6,-1
 682 512 l 1,7,-1
 170 512 l 1,8,-1
 170 682 l 1,9,-1
 0 682 l 1,10,-1
 0 1536 l 1,11,-1
 341 1536 l 1,12,-1
 341 682 l 1,13,-1
 682 682 l 1,14,-1
 682 1536 l 1,15,-1
 1024 1536 l 1,16,-1
 1024 170 l 1,17,-1
 853 170 l 1,18,-1
 853 0 l 1,19,-1
 170 0 l 1,0,-1
EndSplineSet
EndChar

StartChar: uni0424
Encoding: 1060 1060 118
Width: 1536
GlyphClass: 1
Flags: W
LayerCount: 2
Fore
SplineSet
512 853 m 1,0,-1
 512 1365 l 1,1,-1
 341 1365 l 1,2,-1
 341 853 l 1,3,-1
 512 853 l 1,0,-1
1024 853 m 1,4,-1
 1024 1365 l 1,5,-1
 853 1365 l 1,6,-1
 853 853 l 1,7,-1
 1024 853 l 1,4,-1
512 0 m 1,8,-1
 512 682 l 1,9,-1
 170 682 l 1,10,-1
 170 853 l 1,11,-1
 0 853 l 1,12,-1
 0 1365 l 1,13,-1
 170 1365 l 1,14,-1
 170 1536 l 1,15,-1
 1194 1536 l 1,16,-1
 1194 1365 l 1,17,-1
 1365 1365 l 1,18,-1
 1365 853 l 1,19,-1
 1194 853 l 1,20,-1
 1194 682 l 1,21,-1
 853 682 l 1,22,-1
 853 0 l 1,23,-1
 512 0 l 1,8,-1
EndSplineSet
EndChar

StartChar: uni0425
Encoding: 1061 1061 119
Width: 1194
GlyphClass: 1
Flags: W
LayerCount: 2
Fore
SplineSet
0 0 m 1,0,-1
 0 341 l 1,1,-1
 170 341 l 1,2,-1
 170 682 l 1,3,-1
 341 682 l 1,4,-1
 341 853 l 1,5,-1
 170 853 l 1,6,-1
 170 1194 l 1,7,-1
 0 1194 l 1,8,-1
 0 1536 l 1,9,-1
 341 1536 l 1,10,-1
 341 1194 l 1,11,-1
 682 1194 l 1,12,-1
 682 1536 l 1,13,-1
 1024 1536 l 1,14,-1
 1024 1194 l 1,15,-1
 853 1194 l 1,16,-1
 853 853 l 1,17,-1
 682 853 l 1,18,-1
 682 682 l 1,19,-1
 853 682 l 1,20,-1
 853 341 l 1,21,-1
 1024 341 l 1,22,-1
 1024 0 l 1,23,-1
 682 0 l 1,24,-1
 682 341 l 1,25,-1
 341 341 l 1,26,-1
 341 0 l 1,27,-1
 0 0 l 1,0,-1
EndSplineSet
EndChar

StartChar: uni0426
Encoding: 1062 1062 120
Width: 1194
GlyphClass: 1
Flags: W
LayerCount: 2
Fore
SplineSet
853 -170 m 1,0,-1
 853 0 l 1,1,-1
 0 0 l 1,2,-1
 0 1536 l 1,3,-1
 341 1536 l 1,4,-1
 341 170 l 1,5,-1
 682 170 l 1,6,-1
 682 1536 l 1,7,-1
 1024 1536 l 1,8,-1
 1024 0 l 1,9,-1
 1194 0 l 1,10,-1
 1194 -170 l 1,11,-1
 853 -170 l 1,0,-1
EndSplineSet
EndChar

StartChar: uni0427
Encoding: 1063 1063 121
Width: 1194
GlyphClass: 1
Flags: W
LayerCount: 2
Fore
SplineSet
682 0 m 1,0,-1
 682 682 l 1,1,-1
 170 682 l 1,2,-1
 170 853 l 1,3,-1
 0 853 l 1,4,-1
 0 1536 l 1,5,-1
 341 1536 l 1,6,-1
 341 853 l 1,7,-1
 682 853 l 1,8,-1
 682 1536 l 1,9,-1
 1024 1536 l 1,10,-1
 1024 0 l 1,11,-1
 682 0 l 1,0,-1
EndSplineSet
EndChar

StartChar: uni0428
Encoding: 1064 1064 122
Width: 1365
GlyphClass: 1
Flags: W
LayerCount: 2
Fore
SplineSet
0 0 m 1,0,-1
 0 1536 l 1,1,-1
 341 1536 l 1,2,-1
 341 170 l 1,3,-1
 512 170 l 1,4,-1
 512 1365 l 1,5,-1
 682 1365 l 1,6,-1
 682 170 l 1,7,-1
 853 170 l 1,8,-1
 853 1536 l 1,9,-1
 1194 1536 l 1,10,-1
 1194 0 l 1,11,-1
 0 0 l 1,0,-1
EndSplineSet
EndChar

StartChar: uni0429
Encoding: 1065 1065 123
Width: 1365
GlyphClass: 1
Flags: W
LayerCount: 2
Fore
SplineSet
853 -341 m 1,0,-1
 853 0 l 1,1,-1
 0 0 l 1,2,-1
 0 1536 l 1,3,-1
 341 1536 l 1,4,-1
 341 170 l 1,5,-1
 512 170 l 1,6,-1
 512 1365 l 1,7,-1
 682 1365 l 1,8,-1
 682 170 l 1,9,-1
 853 170 l 1,10,-1
 853 1536 l 1,11,-1
 1194 1536 l 1,12,-1
 1194 -341 l 1,13,-1
 853 -341 l 1,0,-1
EndSplineSet
EndChar

StartChar: uni042A
Encoding: 1066 1066 124
Width: 1365
GlyphClass: 1
Flags: W
LayerCount: 2
Fore
SplineSet
853 170 m 1,0,-1
 853 682 l 1,1,-1
 512 682 l 1,2,-1
 512 170 l 1,3,-1
 853 170 l 1,0,-1
170 0 m 1,4,-1
 170 1365 l 1,5,-1
 0 1365 l 1,6,-1
 0 1536 l 1,7,-1
 512 1536 l 1,8,-1
 512 853 l 1,9,-1
 1024 853 l 1,10,-1
 1024 682 l 1,11,-1
 1194 682 l 1,12,-1
 1194 170 l 1,13,-1
 1024 170 l 1,14,-1
 1024 0 l 1,15,-1
 170 0 l 1,4,-1
EndSplineSet
EndChar

StartChar: uni042B
Encoding: 1067 1067 125
Width: 1365
GlyphClass: 1
Flags: W
LayerCount: 2
Fore
SplineSet
512 170 m 1,0,-1
 512 682 l 1,1,-1
 341 682 l 1,2,-1
 341 170 l 1,3,-1
 512 170 l 1,0,-1
0 0 m 1,4,-1
 0 1536 l 1,5,-1
 341 1536 l 1,6,-1
 341 853 l 1,7,-1
 682 853 l 1,8,-1
 682 682 l 1,9,-1
 853 682 l 1,10,-1
 853 1536 l 1,11,-1
 1194 1536 l 1,12,-1
 1194 0 l 1,13,-1
 853 0 l 1,14,-1
 853 170 l 1,15,-1
 682 170 l 1,16,-1
 682 0 l 1,17,-1
 0 0 l 1,4,-1
EndSplineSet
EndChar

StartChar: uni042C
Encoding: 1068 1068 126
Width: 1194
GlyphClass: 1
Flags: W
LayerCount: 2
Fore
SplineSet
682 170 m 1,0,-1
 682 682 l 1,1,-1
 341 682 l 1,2,-1
 341 170 l 1,3,-1
 682 170 l 1,0,-1
0 0 m 1,4,-1
 0 1536 l 1,5,-1
 341 1536 l 1,6,-1
 341 853 l 1,7,-1
 853 853 l 1,8,-1
 853 682 l 1,9,-1
 1024 682 l 1,10,-1
 1024 170 l 1,11,-1
 853 170 l 1,12,-1
 853 0 l 1,13,-1
 0 0 l 1,4,-1
EndSplineSet
EndChar

StartChar: uni042D
Encoding: 1069 1069 127
Width: 1194
GlyphClass: 1
Flags: W
LayerCount: 2
Fore
SplineSet
170 0 m 1,0,-1
 170 170 l 1,1,-1
 0 170 l 1,2,-1
 0 512 l 1,3,-1
 341 512 l 1,4,-1
 341 170 l 1,5,-1
 682 170 l 1,6,-1
 682 682 l 1,7,-1
 170 682 l 1,8,-1
 170 853 l 1,9,-1
 682 853 l 1,10,-1
 682 1365 l 1,11,-1
 341 1365 l 1,12,-1
 341 1024 l 1,13,-1
 0 1024 l 1,14,-1
 0 1365 l 1,15,-1
 170 1365 l 1,16,-1
 170 1536 l 1,17,-1
 853 1536 l 1,18,-1
 853 1365 l 1,19,-1
 1024 1365 l 1,20,-1
 1024 170 l 1,21,-1
 853 170 l 1,22,-1
 853 0 l 1,23,-1
 170 0 l 1,0,-1
EndSplineSet
EndChar

StartChar: uni042E
Encoding: 1070 1070 128
Width: 1365
GlyphClass: 1
Flags: W
LayerCount: 2
Fore
SplineSet
853 170 m 1,0,-1
 853 1365 l 1,1,-1
 682 1365 l 1,2,-1
 682 170 l 1,3,-1
 853 170 l 1,0,-1
0 0 m 1,4,-1
 0 1536 l 1,5,-1
 341 1536 l 1,6,-1
 341 1365 l 1,7,-1
 512 1365 l 1,8,-1
 512 1536 l 1,9,-1
 1024 1536 l 1,10,-1
 1024 1365 l 1,11,-1
 1194 1365 l 1,12,-1
 1194 170 l 1,13,-1
 1024 170 l 1,14,-1
 1024 0 l 1,15,-1
 512 0 l 1,16,-1
 512 170 l 1,17,-1
 341 170 l 1,18,-1
 341 0 l 1,19,-1
 0 0 l 1,4,-1
EndSplineSet
EndChar

StartChar: uni042F
Encoding: 1071 1071 129
Width: 1194
GlyphClass: 1
Flags: W
LayerCount: 2
Fore
SplineSet
682 853 m 1,0,-1
 682 1365 l 1,1,-1
 341 1365 l 1,2,-1
 341 853 l 1,3,-1
 682 853 l 1,0,-1
0 0 m 1,4,-1
 0 682 l 1,5,-1
 170 682 l 1,6,-1
 170 853 l 1,7,-1
 0 853 l 1,8,-1
 0 1365 l 1,9,-1
 170 1365 l 1,10,-1
 170 1536 l 1,11,-1
 1024 1536 l 1,12,-1
 1024 0 l 1,13,-1
 682 0 l 1,14,-1
 682 682 l 1,15,-1
 341 682 l 1,16,-1
 341 0 l 1,17,-1
 0 0 l 1,4,-1
EndSplineSet
EndChar

StartChar: uni0430
Encoding: 1072 1072 130
Width: 1194
GlyphClass: 1
Flags: W
LayerCount: 2
Fore
SplineSet
682 170 m 1,0,-1
 682 512 l 1,1,-1
 341 512 l 1,2,-1
 341 170 l 1,3,-1
 682 170 l 1,0,-1
170 0 m 1,4,-1
 170 170 l 1,5,-1
 0 170 l 1,6,-1
 0 512 l 1,7,-1
 170 512 l 1,8,-1
 170 682 l 1,9,-1
 682 682 l 1,10,-1
 682 1024 l 1,11,-1
 341 1024 l 1,12,-1
 341 853 l 1,13,-1
 0 853 l 1,14,-1
 0 1024 l 1,15,-1
 170 1024 l 1,16,-1
 170 1194 l 1,17,-1
 853 1194 l 1,18,-1
 853 1024 l 1,19,-1
 1024 1024 l 1,20,-1
 1024 0 l 1,21,-1
 170 0 l 1,4,-1
EndSplineSet
EndChar

StartChar: uni0431
Encoding: 1073 1073 131
Width: 1194
GlyphClass: 1
Flags: W
LayerCount: 2
Fore
SplineSet
682 170 m 1,0,-1
 682 512 l 1,1,-1
 341 512 l 1,2,-1
 341 170 l 1,3,-1
 682 170 l 1,0,-1
0 0 m 1,4,-1
 0 1194 l 1,5,-1
 1024 1194 l 1,6,-1
 1024 1024 l 1,7,-1
 341 1024 l 1,8,-1
 341 682 l 1,9,-1
 853 682 l 1,10,-1
 853 512 l 1,11,-1
 1024 512 l 1,12,-1
 1024 170 l 1,13,-1
 853 170 l 1,14,-1
 853 0 l 1,15,-1
 0 0 l 1,4,-1
EndSplineSet
EndChar

StartChar: uni0432
Encoding: 1074 1074 132
Width: 1194
GlyphClass: 1
Flags: W
LayerCount: 2
Fore
SplineSet
682 170 m 1,0,-1
 682 512 l 1,1,-1
 341 512 l 1,2,-1
 341 170 l 1,3,-1
 682 170 l 1,0,-1
682 682 m 1,4,-1
 682 1024 l 1,5,-1
 341 1024 l 1,6,-1
 341 682 l 1,7,-1
 682 682 l 1,4,-1
0 0 m 1,8,-1
 0 1194 l 1,9,-1
 853 1194 l 1,10,-1
 853 1024 l 1,11,-1
 1024 1024 l 1,12,-1
 1024 682 l 1,13,-1
 853 682 l 1,14,-1
 853 512 l 1,15,-1
 1024 512 l 1,16,-1
 1024 170 l 1,17,-1
 853 170 l 1,18,-1
 853 0 l 1,19,-1
 0 0 l 1,8,-1
EndSplineSet
EndChar

StartChar: uni0433
Encoding: 1075 1075 133
Width: 1194
GlyphClass: 1
Flags: W
LayerCount: 2
Fore
SplineSet
0 0 m 1,0,-1
 0 1194 l 1,1,-1
 1024 1194 l 1,2,-1
 1024 1024 l 1,3,-1
 341 1024 l 1,4,-1
 341 0 l 1,5,-1
 0 0 l 1,0,-1
EndSplineSet
EndChar

StartChar: uni0434
Encoding: 1076 1076 134
Width: 1365
GlyphClass: 1
Flags: W
LayerCount: 2
Fore
SplineSet
682 341 m 1,0,-1
 682 1024 l 1,1,-1
 512 1024 l 1,2,-1
 512 341 l 1,3,-1
 682 341 l 1,0,-1
0 0 m 1,4,-1
 0 341 l 1,5,-1
 170 341 l 1,6,-1
 170 1194 l 1,7,-1
 1024 1194 l 1,8,-1
 1024 341 l 1,9,-1
 1194 341 l 1,10,-1
 1194 0 l 1,11,-1
 853 0 l 1,12,-1
 853 170 l 1,13,-1
 341 170 l 1,14,-1
 341 0 l 1,15,-1
 0 0 l 1,4,-1
EndSplineSet
EndChar

StartChar: uni0435
Encoding: 1077 1077 135
Width: 1194
GlyphClass: 1
Flags: W
LayerCount: 2
Fore
SplineSet
682 682 m 1,0,-1
 682 1024 l 1,1,-1
 341 1024 l 1,2,-1
 341 682 l 1,3,-1
 682 682 l 1,0,-1
170 0 m 1,4,-1
 170 170 l 1,5,-1
 0 170 l 1,6,-1
 0 1024 l 1,7,-1
 170 1024 l 1,8,-1
 170 1194 l 1,9,-1
 853 1194 l 1,10,-1
 853 1024 l 1,11,-1
 1024 1024 l 1,12,-1
 1024 682 l 1,13,-1
 853 682 l 1,14,-1
 853 512 l 1,15,-1
 341 512 l 1,16,-1
 341 170 l 1,17,-1
 682 170 l 1,18,-1
 682 341 l 1,19,-1
 1024 341 l 1,20,-1
 1024 170 l 1,21,-1
 853 170 l 1,22,-1
 853 0 l 1,23,-1
 170 0 l 1,4,-1
EndSplineSet
EndChar

StartChar: uni0436
Encoding: 1078 1078 136
Width: 1365
GlyphClass: 1
Flags: W
LayerCount: 2
Fore
SplineSet
0 0 m 1,0,-1
 0 341 l 1,1,-1
 170 341 l 1,2,-1
 170 512 l 1,3,-1
 341 512 l 1,4,-1
 341 682 l 1,5,-1
 170 682 l 1,6,-1
 170 853 l 1,7,-1
 0 853 l 1,8,-1
 0 1194 l 1,9,-1
 341 1194 l 1,10,-1
 341 853 l 1,11,-1
 512 853 l 1,12,-1
 512 1194 l 1,13,-1
 682 1194 l 1,14,-1
 682 853 l 1,15,-1
 853 853 l 1,16,-1
 853 1194 l 1,17,-1
 1194 1194 l 1,18,-1
 1194 853 l 1,19,-1
 1024 853 l 1,20,-1
 1024 682 l 1,21,-1
 853 682 l 1,22,-1
 853 512 l 1,23,-1
 1024 512 l 1,24,-1
 1024 341 l 1,25,-1
 1194 341 l 1,26,-1
 1194 0 l 1,27,-1
 853 0 l 1,28,-1
 853 341 l 1,29,-1
 682 341 l 1,30,-1
 682 0 l 1,31,-1
 512 0 l 1,32,-1
 512 341 l 1,33,-1
 341 341 l 1,34,-1
 341 0 l 1,35,-1
 0 0 l 1,0,-1
EndSplineSet
EndChar

StartChar: uni0437
Encoding: 1079 1079 137
Width: 1194
GlyphClass: 1
Flags: W
LayerCount: 2
Fore
SplineSet
170 0 m 1,0,-1
 170 170 l 1,1,-1
 0 170 l 1,2,-1
 0 341 l 1,3,-1
 341 341 l 1,4,-1
 341 170 l 1,5,-1
 682 170 l 1,6,-1
 682 512 l 1,7,-1
 341 512 l 1,8,-1
 341 682 l 1,9,-1
 682 682 l 1,10,-1
 682 1024 l 1,11,-1
 341 1024 l 1,12,-1
 341 853 l 1,13,-1
 0 853 l 1,14,-1
 0 1024 l 1,15,-1
 170 1024 l 1,16,-1
 170 1194 l 1,17,-1
 853 1194 l 1,18,-1
 853 1024 l 1,19,-1
 1024 1024 l 1,20,-1
 1024 682 l 1,21,-1
 853 682 l 1,22,-1
 853 512 l 1,23,-1
 1024 512 l 1,24,-1
 1024 170 l 1,25,-1
 853 170 l 1,26,-1
 853 0 l 1,27,-1
 170 0 l 1,0,-1
EndSplineSet
EndChar

StartChar: uni0438
Encoding: 1080 1080 138
Width: 1194
GlyphClass: 1
Flags: W
LayerCount: 2
Fore
SplineSet
0 0 m 1,0,-1
 0 1194 l 1,1,-1
 341 1194 l 1,2,-1
 341 682 l 1,3,-1
 512 682 l 1,4,-1
 512 853 l 1,5,-1
 682 853 l 1,6,-1
 682 1194 l 1,7,-1
 1024 1194 l 1,8,-1
 1024 0 l 1,9,-1
 682 0 l 1,10,-1
 682 512 l 1,11,-1
 512 512 l 1,12,-1
 512 341 l 1,13,-1
 341 341 l 1,14,-1
 341 0 l 1,15,-1
 0 0 l 1,0,-1
EndSplineSet
EndChar

StartChar: uni0439
Encoding: 1081 1081 139
Width: 1194
GlyphClass: 1
Flags: W
LayerCount: 2
Fore
SplineSet
0 0 m 1,0,-1
 0 1194 l 1,1,-1
 341 1194 l 1,2,-1
 341 682 l 1,3,-1
 512 682 l 1,4,-1
 512 853 l 1,5,-1
 682 853 l 1,6,-1
 682 1194 l 1,7,-1
 1024 1194 l 1,8,-1
 1024 0 l 1,9,-1
 682 0 l 1,10,-1
 682 512 l 1,11,-1
 512 512 l 1,12,-1
 512 341 l 1,13,-1
 341 341 l 1,14,-1
 341 0 l 1,15,-1
 0 0 l 1,0,-1
341 1194 m 1,16,-1
 341 1365 l 1,17,-1
 682 1365 l 1,18,-1
 682 1194 l 1,19,-1
 341 1194 l 1,16,-1
EndSplineSet
EndChar

StartChar: uni043A
Encoding: 1082 1082 140
Width: 1194
GlyphClass: 1
Flags: W
LayerCount: 2
Fore
SplineSet
0 0 m 1,0,-1
 0 1194 l 1,1,-1
 341 1194 l 1,2,-1
 341 682 l 1,3,-1
 512 682 l 1,4,-1
 512 853 l 1,5,-1
 682 853 l 1,6,-1
 682 1194 l 1,7,-1
 1024 1194 l 1,8,-1
 1024 853 l 1,9,-1
 853 853 l 1,10,-1
 853 682 l 1,11,-1
 682 682 l 1,12,-1
 682 512 l 1,13,-1
 853 512 l 1,14,-1
 853 341 l 1,15,-1
 1024 341 l 1,16,-1
 1024 0 l 1,17,-1
 682 0 l 1,18,-1
 682 341 l 1,19,-1
 512 341 l 1,20,-1
 512 512 l 1,21,-1
 341 512 l 1,22,-1
 341 0 l 1,23,-1
 0 0 l 1,0,-1
EndSplineSet
EndChar

StartChar: uni043B
Encoding: 1083 1083 141
Width: 1194
GlyphClass: 1
Flags: W
LayerCount: 2
Fore
SplineSet
0 0 m 1,0,-1
 0 341 l 1,1,-1
 170 341 l 1,2,-1
 170 1024 l 1,3,-1
 341 1024 l 1,4,-1
 341 1194 l 1,5,-1
 1024 1194 l 1,6,-1
 1024 0 l 1,7,-1
 682 0 l 1,8,-1
 682 1024 l 1,9,-1
 512 1024 l 1,10,-1
 512 170 l 1,11,-1
 341 170 l 1,12,-1
 341 0 l 1,13,-1
 0 0 l 1,0,-1
EndSplineSet
EndChar

StartChar: uni043C
Encoding: 1084 1084 142
Width: 1365
GlyphClass: 1
Flags: W
LayerCount: 2
Fore
SplineSet
0 0 m 1,0,-1
 0 1194 l 1,1,-1
 170 1194 l 1,2,-1
 170 1024 l 1,3,-1
 341 1024 l 1,4,-1
 341 853 l 1,5,-1
 512 853 l 1,6,-1
 512 682 l 1,7,-1
 682 682 l 1,8,-1
 682 853 l 1,9,-1
 853 853 l 1,10,-1
 853 1024 l 1,11,-1
 1024 1024 l 1,12,-1
 1024 1194 l 1,13,-1
 1194 1194 l 1,14,-1
 1194 0 l 1,15,-1
 853 0 l 1,16,-1
 853 512 l 1,17,-1
 682 512 l 1,18,-1
 682 341 l 1,19,-1
 512 341 l 1,20,-1
 512 512 l 1,21,-1
 341 512 l 1,22,-1
 341 0 l 1,23,-1
 0 0 l 1,0,-1
EndSplineSet
EndChar

StartChar: uni043D
Encoding: 1085 1085 143
Width: 1194
GlyphClass: 1
Flags: W
LayerCount: 2
Fore
SplineSet
0 0 m 1,0,-1
 0 1194 l 1,1,-1
 341 1194 l 1,2,-1
 341 682 l 1,3,-1
 682 682 l 1,4,-1
 682 1194 l 1,5,-1
 1024 1194 l 1,6,-1
 1024 0 l 1,7,-1
 682 0 l 1,8,-1
 682 512 l 1,9,-1
 341 512 l 1,10,-1
 341 0 l 1,11,-1
 0 0 l 1,0,-1
EndSplineSet
EndChar

StartChar: uni043E
Encoding: 1086 1086 144
Width: 1194
GlyphClass: 1
Flags: W
LayerCount: 2
Fore
SplineSet
682 170 m 1,0,-1
 682 1024 l 1,1,-1
 341 1024 l 1,2,-1
 341 170 l 1,3,-1
 682 170 l 1,0,-1
170 0 m 1,4,-1
 170 170 l 1,5,-1
 0 170 l 1,6,-1
 0 1024 l 1,7,-1
 170 1024 l 1,8,-1
 170 1194 l 1,9,-1
 853 1194 l 1,10,-1
 853 1024 l 1,11,-1
 1024 1024 l 1,12,-1
 1024 170 l 1,13,-1
 853 170 l 1,14,-1
 853 0 l 1,15,-1
 170 0 l 1,4,-1
EndSplineSet
EndChar

StartChar: uni043F
Encoding: 1087 1087 145
Width: 1194
GlyphClass: 1
Flags: W
LayerCount: 2
Fore
SplineSet
0 0 m 1,0,-1
 0 1194 l 1,1,-1
 1024 1194 l 1,2,-1
 1024 0 l 1,3,-1
 682 0 l 1,4,-1
 682 1024 l 1,5,-1
 341 1024 l 1,6,-1
 341 0 l 1,7,-1
 0 0 l 1,0,-1
EndSplineSet
EndChar

StartChar: uni0440
Encoding: 1088 1088 146
Width: 1194
GlyphClass: 1
Flags: W
LayerCount: 2
Fore
SplineSet
682 512 m 1,0,-1
 682 1024 l 1,1,-1
 341 1024 l 1,2,-1
 341 512 l 1,3,-1
 682 512 l 1,0,-1
0 0 m 1,4,-1
 0 1194 l 1,5,-1
 853 1194 l 1,6,-1
 853 1024 l 1,7,-1
 1024 1024 l 1,8,-1
 1024 512 l 1,9,-1
 853 512 l 1,10,-1
 853 341 l 1,11,-1
 341 341 l 1,12,-1
 341 0 l 1,13,-1
 0 0 l 1,4,-1
EndSplineSet
EndChar

StartChar: uni0441
Encoding: 1089 1089 147
Width: 1194
GlyphClass: 1
Flags: W
LayerCount: 2
Fore
SplineSet
170 0 m 1,0,-1
 170 170 l 1,1,-1
 0 170 l 1,2,-1
 0 1024 l 1,3,-1
 170 1024 l 1,4,-1
 170 1194 l 1,5,-1
 853 1194 l 1,6,-1
 853 1024 l 1,7,-1
 1024 1024 l 1,8,-1
 1024 682 l 1,9,-1
 682 682 l 1,10,-1
 682 1024 l 1,11,-1
 341 1024 l 1,12,-1
 341 170 l 1,13,-1
 682 170 l 1,14,-1
 682 512 l 1,15,-1
 1024 512 l 1,16,-1
 1024 170 l 1,17,-1
 853 170 l 1,18,-1
 853 0 l 1,19,-1
 170 0 l 1,0,-1
EndSplineSet
EndChar

StartChar: uni0442
Encoding: 1090 1090 148
Width: 1194
GlyphClass: 1
Flags: W
LayerCount: 2
Fore
SplineSet
341 0 m 1,0,-1
 341 1024 l 1,1,-1
 0 1024 l 1,2,-1
 0 1194 l 1,3,-1
 1024 1194 l 1,4,-1
 1024 1024 l 1,5,-1
 682 1024 l 1,6,-1
 682 0 l 1,7,-1
 341 0 l 1,0,-1
EndSplineSet
EndChar

StartChar: uni0443
Encoding: 1091 1091 149
Width: 1194
GlyphClass: 1
Flags: W
LayerCount: 2
Fore
SplineSet
170 -512 m 1,0,-1
 170 -341 l 1,1,-1
 0 -341 l 1,2,-1
 0 -170 l 1,3,-1
 341 -170 l 1,4,-1
 341 -341 l 1,5,-1
 682 -341 l 1,6,-1
 682 0 l 1,7,-1
 170 0 l 1,8,-1
 170 170 l 1,9,-1
 0 170 l 1,10,-1
 0 1194 l 1,11,-1
 341 1194 l 1,12,-1
 341 170 l 1,13,-1
 682 170 l 1,14,-1
 682 1194 l 1,15,-1
 1024 1194 l 1,16,-1
 1024 -341 l 1,17,-1
 853 -341 l 1,18,-1
 853 -512 l 1,19,-1
 170 -512 l 1,0,-1
EndSplineSet
EndChar

StartChar: uni0444
Encoding: 1092 1092 150
Width: 1536
GlyphClass: 1
Flags: W
LayerCount: 2
Fore
SplineSet
512 512 m 1,0,-1
 512 1024 l 1,1,-1
 341 1024 l 1,2,-1
 341 512 l 1,3,-1
 512 512 l 1,0,-1
1024 512 m 1,4,-1
 1024 1024 l 1,5,-1
 853 1024 l 1,6,-1
 853 512 l 1,7,-1
 1024 512 l 1,4,-1
512 0 m 1,8,-1
 512 341 l 1,9,-1
 170 341 l 1,10,-1
 170 512 l 1,11,-1
 0 512 l 1,12,-1
 0 1024 l 1,13,-1
 170 1024 l 1,14,-1
 170 1194 l 1,15,-1
 1194 1194 l 1,16,-1
 1194 1024 l 1,17,-1
 1365 1024 l 1,18,-1
 1365 512 l 1,19,-1
 1194 512 l 1,20,-1
 1194 341 l 1,21,-1
 853 341 l 1,22,-1
 853 0 l 1,23,-1
 512 0 l 1,8,-1
EndSplineSet
EndChar

StartChar: uni0445
Encoding: 1093 1093 151
Width: 1194
GlyphClass: 1
Flags: W
LayerCount: 2
Fore
SplineSet
0 0 m 1,0,-1
 0 341 l 1,1,-1
 170 341 l 1,2,-1
 170 512 l 1,3,-1
 341 512 l 1,4,-1
 341 682 l 1,5,-1
 170 682 l 1,6,-1
 170 853 l 1,7,-1
 0 853 l 1,8,-1
 0 1194 l 1,9,-1
 341 1194 l 1,10,-1
 341 853 l 1,11,-1
 682 853 l 1,12,-1
 682 1194 l 1,13,-1
 1024 1194 l 1,14,-1
 1024 853 l 1,15,-1
 853 853 l 1,16,-1
 853 682 l 1,17,-1
 682 682 l 1,18,-1
 682 512 l 1,19,-1
 853 512 l 1,20,-1
 853 341 l 1,21,-1
 1024 341 l 1,22,-1
 1024 0 l 1,23,-1
 682 0 l 1,24,-1
 682 341 l 1,25,-1
 341 341 l 1,26,-1
 341 0 l 1,27,-1
 0 0 l 1,0,-1
EndSplineSet
EndChar

StartChar: uni0446
Encoding: 1094 1094 152
Width: 1194
GlyphClass: 1
Flags: W
LayerCount: 2
Fore
SplineSet
853 -170 m 1,0,-1
 853 0 l 1,1,-1
 0 0 l 1,2,-1
 0 1194 l 1,3,-1
 341 1194 l 1,4,-1
 341 170 l 1,5,-1
 682 170 l 1,6,-1
 682 1194 l 1,7,-1
 1024 1194 l 1,8,-1
 1024 0 l 1,9,-1
 1194 0 l 1,10,-1
 1194 -170 l 1,11,-1
 853 -170 l 1,0,-1
EndSplineSet
EndChar

StartChar: uni0447
Encoding: 1095 1095 153
Width: 1194
GlyphClass: 1
Flags: W
LayerCount: 2
Fore
SplineSet
682 0 m 1,0,-1
 682 341 l 1,1,-1
 170 341 l 1,2,-1
 170 512 l 1,3,-1
 0 512 l 1,4,-1
 0 1194 l 1,5,-1
 341 1194 l 1,6,-1
 341 512 l 1,7,-1
 682 512 l 1,8,-1
 682 1194 l 1,9,-1
 1024 1194 l 1,10,-1
 1024 0 l 1,11,-1
 682 0 l 1,0,-1
EndSplineSet
EndChar

StartChar: uni0448
Encoding: 1096 1096 154
Width: 1365
GlyphClass: 1
Flags: W
LayerCount: 2
Fore
SplineSet
0 0 m 1,0,-1
 0 1194 l 1,1,-1
 341 1194 l 1,2,-1
 341 170 l 1,3,-1
 512 170 l 1,4,-1
 512 1024 l 1,5,-1
 682 1024 l 1,6,-1
 682 170 l 1,7,-1
 853 170 l 1,8,-1
 853 1194 l 1,9,-1
 1194 1194 l 1,10,-1
 1194 0 l 1,11,-1
 0 0 l 1,0,-1
EndSplineSet
EndChar

StartChar: uni0449
Encoding: 1097 1097 155
Width: 1365
GlyphClass: 1
Flags: W
LayerCount: 2
Fore
SplineSet
853 -170 m 1,0,-1
 853 0 l 1,1,-1
 0 0 l 1,2,-1
 0 1194 l 1,3,-1
 341 1194 l 1,4,-1
 341 170 l 1,5,-1
 512 170 l 1,6,-1
 512 1024 l 1,7,-1
 682 1024 l 1,8,-1
 682 170 l 1,9,-1
 853 170 l 1,10,-1
 853 1194 l 1,11,-1
 1194 1194 l 1,12,-1
 1194 -170 l 1,13,-1
 853 -170 l 1,0,-1
EndSplineSet
EndChar

StartChar: uni044A
Encoding: 1098 1098 156
Width: 1365
GlyphClass: 1
Flags: W
LayerCount: 2
Fore
SplineSet
853 170 m 1,0,-1
 853 682 l 1,1,-1
 512 682 l 1,2,-1
 512 170 l 1,3,-1
 853 170 l 1,0,-1
170 0 m 1,4,-1
 170 1024 l 1,5,-1
 0 1024 l 1,6,-1
 0 1194 l 1,7,-1
 512 1194 l 1,8,-1
 512 853 l 1,9,-1
 1024 853 l 1,10,-1
 1024 682 l 1,11,-1
 1194 682 l 1,12,-1
 1194 170 l 1,13,-1
 1024 170 l 1,14,-1
 1024 0 l 1,15,-1
 170 0 l 1,4,-1
EndSplineSet
EndChar

StartChar: uni044B
Encoding: 1099 1099 157
Width: 1365
GlyphClass: 1
Flags: W
LayerCount: 2
Fore
SplineSet
512 170 m 1,0,-1
 512 682 l 1,1,-1
 341 682 l 1,2,-1
 341 170 l 1,3,-1
 512 170 l 1,0,-1
0 0 m 1,4,-1
 0 1194 l 1,5,-1
 341 1194 l 1,6,-1
 341 853 l 1,7,-1
 682 853 l 1,8,-1
 682 682 l 1,9,-1
 853 682 l 1,10,-1
 853 1194 l 1,11,-1
 1194 1194 l 1,12,-1
 1194 0 l 1,13,-1
 853 0 l 1,14,-1
 853 170 l 1,15,-1
 682 170 l 1,16,-1
 682 0 l 1,17,-1
 0 0 l 1,4,-1
EndSplineSet
EndChar

StartChar: uni044C
Encoding: 1100 1100 158
Width: 1194
GlyphClass: 1
Flags: W
LayerCount: 2
Fore
SplineSet
682 170 m 1,0,-1
 682 682 l 1,1,-1
 341 682 l 1,2,-1
 341 170 l 1,3,-1
 682 170 l 1,0,-1
0 0 m 1,4,-1
 0 1194 l 1,5,-1
 341 1194 l 1,6,-1
 341 853 l 1,7,-1
 853 853 l 1,8,-1
 853 682 l 1,9,-1
 1024 682 l 1,10,-1
 1024 170 l 1,11,-1
 853 170 l 1,12,-1
 853 0 l 1,13,-1
 0 0 l 1,4,-1
EndSplineSet
EndChar

StartChar: uni044D
Encoding: 1101 1101 159
Width: 1194
GlyphClass: 1
Flags: W
LayerCount: 2
Fore
SplineSet
170 0 m 1,0,-1
 170 170 l 1,1,-1
 0 170 l 1,2,-1
 0 341 l 1,3,-1
 341 341 l 1,4,-1
 341 170 l 1,5,-1
 682 170 l 1,6,-1
 682 512 l 1,7,-1
 341 512 l 1,8,-1
 341 682 l 1,9,-1
 682 682 l 1,10,-1
 682 1024 l 1,11,-1
 341 1024 l 1,12,-1
 341 853 l 1,13,-1
 0 853 l 1,14,-1
 0 1024 l 1,15,-1
 170 1024 l 1,16,-1
 170 1194 l 1,17,-1
 853 1194 l 1,18,-1
 853 1024 l 1,19,-1
 1024 1024 l 1,20,-1
 1024 170 l 1,21,-1
 853 170 l 1,22,-1
 853 0 l 1,23,-1
 170 0 l 1,0,-1
EndSplineSet
EndChar

StartChar: uni044E
Encoding: 1102 1102 160
Width: 1365
GlyphClass: 1
Flags: W
LayerCount: 2
Fore
SplineSet
853 170 m 1,0,-1
 853 1024 l 1,1,-1
 682 1024 l 1,2,-1
 682 170 l 1,3,-1
 853 170 l 1,0,-1
0 0 m 1,4,-1
 0 1194 l 1,5,-1
 341 1194 l 1,6,-1
 341 1024 l 1,7,-1
 512 1024 l 1,8,-1
 512 1194 l 1,9,-1
 1024 1194 l 1,10,-1
 1024 1024 l 1,11,-1
 1194 1024 l 1,12,-1
 1194 170 l 1,13,-1
 1024 170 l 1,14,-1
 1024 0 l 1,15,-1
 512 0 l 1,16,-1
 512 170 l 1,17,-1
 341 170 l 1,18,-1
 341 0 l 1,19,-1
 0 0 l 1,4,-1
EndSplineSet
EndChar

StartChar: uni044F
Encoding: 1103 1103 161
Width: 1194
GlyphClass: 1
Flags: W
LayerCount: 2
Fore
SplineSet
682 682 m 1,0,-1
 682 1024 l 1,1,-1
 341 1024 l 1,2,-1
 341 682 l 1,3,-1
 682 682 l 1,0,-1
0 0 m 1,4,-1
 0 512 l 1,5,-1
 170 512 l 1,6,-1
 170 682 l 1,7,-1
 0 682 l 1,8,-1
 0 1024 l 1,9,-1
 170 1024 l 1,10,-1
 170 1194 l 1,11,-1
 1024 1194 l 1,12,-1
 1024 0 l 1,13,-1
 682 0 l 1,14,-1
 682 512 l 1,15,-1
 341 512 l 1,16,-1
 341 0 l 1,17,-1
 0 0 l 1,4,-1
EndSplineSet
EndChar

StartChar: uni0451
Encoding: 1105 1105 163
Width: 1365
GlyphClass: 1
Flags: W
LayerCount: 2
Fore
SplineSet
682 682 m 1,0,-1
 682 1024 l 1,1,-1
 341 1024 l 1,2,-1
 341 682 l 1,3,-1
 682 682 l 1,0,-1
170 0 m 1,4,-1
 170 170 l 1,5,-1
 0 170 l 1,6,-1
 0 1024 l 1,7,-1
 170 1024 l 1,8,-1
 170 1194 l 1,9,-1
 853 1194 l 1,10,-1
 853 1024 l 1,11,-1
 1024 1024 l 1,12,-1
 1024 682 l 1,13,-1
 853 682 l 1,14,-1
 853 512 l 1,15,-1
 341 512 l 1,16,-1
 341 170 l 1,17,-1
 682 170 l 1,18,-1
 682 341 l 1,19,-1
 1024 341 l 1,20,-1
 1024 170 l 1,21,-1
 853 170 l 1,22,-1
 853 0 l 1,23,-1
 170 0 l 1,4,-1
341 1365 m 1,24,-1
 341 1536 l 1,25,-1
 512 1536 l 1,26,-1
 512 1365 l 1,27,-1
 341 1365 l 1,24,-1
682 1365 m 1,28,-1
 682 1536 l 1,29,-1
 853 1536 l 1,30,-1
 853 1365 l 1,31,-1
 682 1365 l 1,28,-1
EndSplineSet
EndChar

StartChar: quoteleft
Encoding: 8216 8216 164
Width: 1365
GlyphClass: 1
Flags: W
LayerCount: 2
Fore
SplineSet
0 1194 m 1,0,-1
 0 1706 l 1,1,-1
 170 1706 l 1,2,-1
 170 1536 l 1,3,-1
 341 1536 l 1,4,-1
 341 1194 l 1,5,-1
 0 1194 l 1,0,-1
170 1706 m 1,6,-1
 170 1877 l 1,7,-1
 341 1877 l 1,8,-1
 341 1706 l 1,9,-1
 170 1706 l 1,6,-1
EndSplineSet
EndChar

StartChar: quoteright
Encoding: 8217 8217 165
Width: 1365
GlyphClass: 1
Flags: W
LayerCount: 2
Fore
SplineSet
0 853 m 1,0,-1
 0 1024 l 1,1,-1
 170 1024 l 1,2,-1
 170 853 l 1,3,-1
 0 853 l 1,0,-1
170 1024 m 1,4,-1
 170 1194 l 1,5,-1
 0 1194 l 1,6,-1
 0 1536 l 1,7,-1
 341 1536 l 1,8,-1
 341 1024 l 1,9,-1
 170 1024 l 1,4,-1
EndSplineSet
EndChar

StartChar: quotedblleft
Encoding: 8220 8220 166
Width: 1365
GlyphClass: 1
Flags: W
LayerCount: 2
Fore
SplineSet
0 1194 m 1,0,-1
 0 1706 l 1,1,-1
 170 1706 l 1,2,-1
 170 1536 l 1,3,-1
 341 1536 l 1,4,-1
 341 1194 l 1,5,-1
 0 1194 l 1,0,-1
512 1194 m 1,6,-1
 512 1706 l 1,7,-1
 682 1706 l 1,8,-1
 682 1536 l 1,9,-1
 853 1536 l 1,10,-1
 853 1194 l 1,11,-1
 512 1194 l 1,6,-1
170 1706 m 1,12,-1
 170 1877 l 1,13,-1
 341 1877 l 1,14,-1
 341 1706 l 1,15,-1
 170 1706 l 1,12,-1
682 1706 m 1,16,-1
 682 1877 l 1,17,-1
 853 1877 l 1,18,-1
 853 1706 l 1,19,-1
 682 1706 l 1,16,-1
EndSplineSet
EndChar

StartChar: quotedblright
Encoding: 8221 8221 167
Width: 1365
GlyphClass: 1
Flags: W
LayerCount: 2
Fore
SplineSet
0 853 m 1,0,-1
 0 1024 l 1,1,-1
 170 1024 l 1,2,-1
 170 853 l 1,3,-1
 0 853 l 1,0,-1
512 853 m 1,4,-1
 512 1024 l 1,5,-1
 682 1024 l 1,6,-1
 682 853 l 1,7,-1
 512 853 l 1,4,-1
170 1024 m 1,8,-1
 170 1194 l 1,9,-1
 0 1194 l 1,10,-1
 0 1536 l 1,11,-1
 341 1536 l 1,12,-1
 341 1024 l 1,13,-1
 170 1024 l 1,8,-1
682 1024 m 1,14,-1
 682 1194 l 1,15,-1
 512 1194 l 1,16,-1
 512 1536 l 1,17,-1
 853 1536 l 1,18,-1
 853 1024 l 1,19,-1
 682 1024 l 1,14,-1
EndSplineSet
EndChar
